<?xml version="1.0" encoding="utf-8"?>
<!-- Generator: Adobe Illustrator 26.3.1, SVG Export Plug-In . SVG Version: 6.00 Build 0)  -->
<svg version="1.1" id="Layer_1" xmlns="http://www.w3.org/2000/svg" xmlns:xlink="http://www.w3.org/1999/xlink" x="0px" y="0px"
	 viewBox="0 0 1000 1000" style="enable-background:new 0 0 1000 1000;" xml:space="preserve">
<style type="text/css">
	.st0{fill:#FFFFFF;}
	.st1{fill:#BC8579;stroke:#601D15;stroke-miterlimit:10;}
	.st2{opacity:7.000000e-02;fill:#FFFFFF;}
	.st3{opacity:0.2;fill:#601D15;}
	.st4{opacity:0.3;}
	.st5{fill:#601D15;}
	.st6{fill:none;stroke:#601D15;stroke-miterlimit:10;}
	.st7{fill:#BC8579;stroke:#601D15;stroke-width:2;stroke-miterlimit:10;}
	.st8{fill:#93B9CE;stroke:#206191;stroke-miterlimit:10;}
	.st9{font-family:'ArialMT';}
	.st10{font-size:35.2379px;}
	.st11{fill:none;stroke:#FC545D;stroke-width:9;stroke-miterlimit:10;}
	.st12{fill:#FC545D;}
</style>
<rect class="st0" width="1000" height="1000"/>
<g>
	<g>
		<path class="st1" d="M206.7,672.7c4.1-11.6,14.9-15.4,25.7-15.4c-0.2-0.4,22.3,5.8,22.3,5.8s24.8,10.7,41.8,60.8
			c20.2,59.8,25.6,90.9,31.4,107.5s12.4,33.9,11.6,47.1c-0.8,13.2-24,21.5-27.3,14.9c-3.3-6.6,7.4-5.8,7.4-5.4s0-22.7,0-22.3h-6.2
			c0,0,4.6-3.7,2.1-18.6c-2.5-14.9-19-36.4-24-51.3c-3.3-9.8-17.3-29.7-29.1-48.5c-2,9.1-4.2,18.2-2.7,25.6c2,10.7,9.8,18.7,6,43.5
			c-1.5,9.9-13.3,30.4-25.1,45.7c-11.9,15.3-27.1,9.1-27.1,9.1c-30.8-1.6-31.1-69.1-36.3-92.8S199.7,692.8,206.7,672.7z"/>
		<path class="st2" d="M249.6,686.5c0,0-48.7,57.9-51.1,18.2C196.1,665,262.6,661.2,249.6,686.5z"/>
		<path class="st3" d="M263.4,823.9c-3.2,8.2-9.4,19.1-16.3,29.2c0.3-3.4,0.3-7.5-0.7-11.1C246.4,842,255.7,831.6,263.4,823.9z"/>
		<path class="st3" d="M248.4,827c0,0,8.2-25.9,9.5-34.3c1.4-8.3-3.4-9.5-4-0.1C253.2,802.1,242.5,825.6,248.4,827z"/>
		<path class="st3" d="M256.1,775.3c0,0,3.5,37.8-15.1,44.8s-39.7-1-45.8-30.2s14.3-38.6,14.3-38.6L256.1,775.3z"/>
		<path class="st1" d="M233.8,803.8c0,0-7.1,9.5-12.8,8.3c-5.7-1.2-14.6-2.3-12.9-8.3c1.6-6,13.2-10.8,13.2-10.8L233.8,803.8z"/>
		<path class="st1" d="M250,744.2c0,0-2.6-11.5-8.3-12.8c-5.7-1.2-14.2-3.9-15.2,2.2s7.6,15.3,7.6,15.3L250,744.2z"/>
		<path class="st3" d="M263.6,725.9c-6-5-14.6-17.2-17.5-27.8c-1.6-5.8,13-10.1,12.7-14.4C265.8,697,261.1,714.3,263.6,725.9z"/>
		<path class="st3" d="M251.8,671c0.4,0.7,0.9,1.4,1.3,2.1c-9.8-3.6-21.6-6.4-29.4-2.8c-15.5,7.2-26.6,21.2-28.4,39.4
			c-1.8,18.3-4.8,73.8-4.9,93.7c-0.1,19.9-3.6,37.4,16.3,60.6c2.2,2.6,4.2,4.9,5.9,6.9c-30-2.7-30.3-69.3-35.5-92.7
			c-5.2-23.6,22.6-85.5,29.6-105.7C213.7,652.6,241.3,654.1,251.8,671z"/>
		<g class="st4">
			<path class="st5" d="M251.1,669.9c-11-1.1-24-7.5-30.9-4.4c-9.8,4.5-19,12.5-25.4,40.9c-6.4,28.4-2.7,73-9.9,103
				c-1.1,4.5-1.4,8.8-1.3,13c-3-17-4.3-34.4-6.5-44.2c-5.2-23.6,22.6-85.5,29.6-105.7C213.6,653,240.1,654,251.1,669.9z"/>
			<path class="st5" d="M202.4,867c-6.5-4.9-10.9-13.9-14.2-24.4c5.5,13.1,14,21.7,14,21.7L202.4,867z"/>
		</g>
		<path class="st1" d="M252.9,746.2c11.8,8.5,16.5,20,15.6,31.7c0.8,0.4,1.8,2.4,2.7,3.1c5.8,4.6,4.4,6.9,4.4,6.9
			c-0.3,1.3-5.8,2.9-10.1,3.5c-0.9,1.9-1.9,3.6-3.1,5.1c-0.1,0.2-0.3,0.3-0.4,0.5c-15,18.1-34.6,8.9-34.6,8.9S234.6,733,252.9,746.2
			z"/>
		<path class="st3" d="M232.8,808.8c4.4,0.2,6.6,1.7,3.4,4.2c-1,0.8-1.9,1.5-2.8,2.2c-7.6,0.4-13.4-1.8-17.8-4.7
			C224.6,806.5,228.4,808.5,232.8,808.8z"/>
		<path class="st3" d="M264.7,777.7c0.5,6.8-0.9,13-3.6,18.3c-2.8,1.8-5.5,3.3-5.8,3.1c-0.5-0.5,1.4-2.1,4.2-5.3
			c2.7-3.2,2.7-6.6,2.7-6.6l-5.5-0.7C256.8,786.4,261,780.7,264.7,777.7z"/>
		<path class="st3" d="M248,715c0,0,11.5,36.1,8.7,32.8C254.1,744.5,237.9,708.7,248,715z"/>
		<path class="st2" d="M243.7,685.4c0,0-40.1,44.2-41.8,14.1C200.2,669.3,253.6,666.2,243.7,685.4z"/>
		<path class="st2" d="M242,683.3c0,0-37.2,36.9-39.2,11.5S250.7,667.2,242,683.3z"/>
		<path class="st2" d="M240,680.8c0,0-20.7,27.8-23.1,7.8C214.5,668.7,247.5,668.4,240,680.8z"/>
		<path class="st2" d="M206.8,849.2c0,0,49.5-45.4,41.1-6.6S187.4,870.1,206.8,849.2z"/>
		<path class="st2" d="M212.1,851.8c0,0,37.5-34.6,31.1-5.1C236.8,876.2,197.4,867.7,212.1,851.8z"/>
		<g>
			<path d="M181.4,784.2c0,0,21,32.4,51.7,22.9s28.3-29.5,28.4-37.9c0.1-8.4,5.5-9.8-3-21.8s-53.3-35.4-67.4-9.1
				C191.2,738.3,163.3,765.9,181.4,784.2z"/>
		</g>
		<path class="st6" d="M262.4,747.3c0,0,21.4-18.1-3.5-63.6"/>
		<path class="st2" d="M269.4,680.3c0,0-4.4-1.8,3.6,8.8c8,10.6,36.1,59.5,26.5,54.2C289.8,738,266.2,692,269.4,680.3z"/>
		<path class="st2" d="M275.1,685.2c0,0-6.7-1.3-0.7,7.1s26.9,47,19.7,42.8S272.7,694.4,275.1,685.2z"/>
		<path class="st2" d="M279.2,690.1c0,0-8.1-0.8-3.4,5.8c4.7,6.6,21,36.8,15.4,33.5C285.6,726.1,277.3,697.3,279.2,690.1z"/>
		<path class="st2" d="M280.8,690.9c0,0-8.7-0.6-4.7,5.1c4.1,5.7,18.4,32.1,13.5,29.2C284.8,722.4,279.2,697.2,280.8,690.9z"/>
		<path class="st2" d="M296.4,747.9c0,0,8.4-2,13.6,12.2c5.1,14.3,20.7,78.6,13.1,70.6C315.5,822.9,291.2,761.9,296.4,747.9z"/>
		<path class="st2" d="M300.6,754.8c0,0,6.3-1.6,10,9.6c3.7,11.2,14.9,61.8,9.3,55.6C314.3,813.8,296.6,765.8,300.6,754.8z"/>
		<path class="st2" d="M303.3,761.4c0,0,4.9-1.3,7.8,7.5c2.9,8.8,11.6,48.4,7.2,43.6C314,807.6,300.2,770.1,303.3,761.4z"/>
		<path class="st2" d="M304.6,762.7c0,0,4.3-1.1,6.9,6.5c2.5,7.7,10.2,42.2,6.4,38C314,803,301.9,770.2,304.6,762.7z"/>
	</g>
	<path class="st1" d="M805,69.2c-4.1-11.6-14.9-15.4-25.7-15.4c0.2-0.4-22.3,5.8-22.3,5.8s-24.8,10.7-41.8,60.8
		c-20.2,59.8-25.6,90.9-31.4,107.5c-5.8,16.5-12.4,33.9-11.6,47.1c0.8,13.2,24,21.5,27.3,14.9c3.3-6.6-7.4-5.8-7.4-5.4
		c0,0.4,0-22.7,0-22.3h6.2c0,0-4.6-3.7-2.1-18.6c2.5-14.9,19-36.4,24-51.3c3.3-9.8,17.3-29.7,29.1-48.5c2,9.1,4.2,18.2,2.7,25.6
		c-2,10.7-9.8,18.7-6,43.5c1.5,9.9,13.3,30.4,25.1,45.7c11.9,15.3,27.1,9.1,27.1,9.1c30.8-1.6,31.1-69.1,36.3-92.8
		C839.8,151.2,812,89.3,805,69.2z"/>
	<path class="st1" d="M104.9,230.7c0,0-6.3-15.2,9.1-27.1c15.3-11.9,35.8-23.6,45.7-25.1c24.8-3.8,32.8,4,43.5,6
		c10.7,2,24.8-3.3,37.3-4.9c12.5-1.6,46.7,15.4,63.7,25.9c17,10.5,18.5,38.1-1.6,45.1c-20.1,7-81.2,21.6-104.8,16.4
		C174.1,261.8,106.5,261.5,104.9,230.7z"/>
	<path class="st2" d="M288.7,207.8c0,0-57,35.5-17.4,37.9S314,194.8,288.7,207.8z"/>
	<path class="st3" d="M152.2,180.7c-8.2,3.2-19.1,9.4-29.2,16.3c3.4-0.3,7.5-0.3,11.1,0.7C134,197.7,144.5,188.4,152.2,180.7z"/>
	<path class="st3" d="M149,195.8c0,0,25.9-8.2,34.3-9.5c8.3-1.4,9.5,3.4,0.1,4S150.5,201.6,149,195.8z"/>
	<path class="st3" d="M192.7,192.9c0,0-37.3,7.2-38.8,27c-1.5,19.8,12,37.8,41.8,35.5s33.1-24.5,33.1-24.5L192.7,192.9z"/>
	<path class="st1" d="M178.3,208.4c0,0-10.9,4.6-11.1,10.4s-1.4,14.7,4.8,14.6c6.2-0.1,13.7-10.2,13.7-10.2L178.3,208.4z"/>
	<path class="st1" d="M240.1,207.4c0,0,10.6,5.3,10.4,11.1s0.3,14.7-5.9,14.2c-6.2-0.6-12.9-11.1-12.9-11.1L240.1,207.4z"/>
	<path class="st3" d="M250.2,180.5c5,6,17.2,14.6,27.8,17.5c5.8,1.6,9.2,0.2,13.5,0.5C278.2,191.6,261.7,183,250.2,180.5z"/>
	<path class="st3" d="M304.2,205.5c-0.7-0.4-1.4-0.9-2.1-1.3c3.6,9.8,6.4,21.6,2.8,29.4c-7.2,15.5-20.3,13.3-38.6,15.1
		c-18.3,1.8-73.8,4.8-93.7,4.9s-37.4,3.6-60.6-16.3c-2.6-2.2-4.9-4.2-6.9-5.9c2.7,30,69.3,30.3,92.7,35.5
		c23.6,5.2,84.7-9.3,104.8-16.4C322.7,243.7,321.2,216.1,304.2,205.5z"/>
	<g class="st4">
		<path class="st5" d="M305.3,206.3c1.1,11,7.5,24,4.4,30.9c-4.5,9.8-12.8,11.1-41.2,17.5s-71.9-2.6-101.9,4.6
			c-4.5,1.1-8.8,1.4-13,1.3c17,3,34.4,4.3,44.2,6.5c23.6,5.2,84.7-9.3,104.8-16.4C322.2,243.8,321.2,217.3,305.3,206.3z"/>
		<path class="st5" d="M109,241.7c4.9,6.5,13.9,10.9,24.4,14.2c-13.1-5.5-21.7-14-21.7-14L109,241.7z"/>
	</g>
	<path class="st1" d="M238.9,204c-5.4-13.6-15.3-20.9-26.9-22.9c-0.2-0.8-1.9-2.3-2.4-3.4c-3.1-6.7-5.6-6-5.6-6
		c-1.3,0-4.2,4.9-5.9,9c-2,0.4-3.9,1-5.7,1.8c-0.2,0.1-0.4,0.2-0.6,0.3c-21.2,10.1-17.1,31.3-17.1,31.3S247.2,225,238.9,204z"/>
	<path class="st3" d="M191,190.7c3.4-2.8,4.3-5.3,0.2-5.4c-1.2,0-2.5-0.1-3.6-0.1c-6.3,4.2-9.7,9.5-11.4,14.4
		C185.8,197.5,187.6,193.6,191,190.7z"/>
	<path class="st3" d="M235.1,196.6c-3.7-5.8-8.4-9.9-13.8-12.5c-3.3,0.3-6.4,0.6-6.5,1c-0.1,0.7,2.4,0.8,6.5,1.8
		c4.1,1,6.2,3.7,6.2,3.7l-3.9,3.9C223.5,194.3,230.4,196.4,235.1,196.6z"/>
	<path class="st3" d="M261.1,196.1c0,0-36.1-11.5-32.8-8.7C231.5,190.1,267.3,206.3,261.1,196.1z"/>
	<path class="st2" d="M289.8,213.6c0,0-43.4,26.9-13.2,28.6C306.7,244,309,203.8,289.8,213.6z"/>
	<path class="st2" d="M292,215.4c0,0-36,23.9-10.7,26S308,206.7,292,215.4z"/>
	<path class="st2" d="M294.4,217.4c0,0-27.8,20.7-7.8,23.1C306.5,242.9,306.8,209.9,294.4,217.4z"/>
	<path class="st2" d="M126.9,237.3c0,0,45.4-49.5,6.6-41.1S106,256.7,126.9,237.3z"/>
	<path class="st2" d="M124.3,232c0,0,34.6-37.5,5.1-31.1S108.4,246.7,124.3,232z"/>
	<path class="st2" d="M121.7,230.9c0,0,28.3-32.7,3.3-27.9C100.1,207.8,108.6,243.6,121.7,230.9z"/>
	<path class="st2" d="M118.9,229.6c0,0,21.3-27.4,1.3-24.4S108.9,240.2,118.9,229.6z"/>
	<g>
		<path d="M184.6,264.1c0,0-26.3-28.3-9.6-55.8s35.5-20.2,43.7-18.3c8.2,2,10.9-2.9,20.4,8.2s21.3,60.3-7.7,67.6
			C231.4,265.8,197.9,286.1,184.6,264.1z"/>
	</g>
	<path class="st1" d="M388.5,230.7c0,0-6.3-15.2,9.1-27.1c15.3-11.9,35.8-23.6,45.7-25.1c24.8-3.8,32.8,4,43.5,6
		c10.7,2,24.8-3.3,37.3-4.9c12.5-1.6,46.7,15.4,63.7,25.9c17,10.5,18.5,38.1-1.6,45.1c-20.1,7-81.2,21.6-104.8,16.4
		C457.6,261.8,390.1,261.5,388.5,230.7z"/>
	<path class="st2" d="M572.3,207.8c0,0-57,35.5-17.4,37.9S597.6,194.8,572.3,207.8z"/>
	<path class="st3" d="M435.7,180.7c-8.2,3.2-19.1,9.4-29.2,16.3c3.4-0.3,7.5-0.3,11.1,0.7C417.6,197.7,428,188.4,435.7,180.7z"/>
	<path class="st3" d="M432.6,195.8c0,0,25.9-8.2,34.3-9.5c8.3-1.4,9.5,3.4,0.1,4S434,201.6,432.6,195.8z"/>
	<path class="st3" d="M476.3,192.9c0,0-37.3,7.2-38.8,27s12,37.8,41.8,35.5c29.8-2.3,33.1-24.5,33.1-24.5L476.3,192.9z"/>
	<path class="st3" d="M533.7,180.5c5,6,17.2,14.6,27.8,17.5c5.8,1.6,9.2,0.2,13.5,0.5C561.8,191.6,545.3,183,533.7,180.5z"/>
	<path class="st3" d="M587.8,205.5c-0.7-0.4-1.4-0.9-2.1-1.3c3.6,9.8,6.4,21.6,2.8,29.4c-7.2,15.5-20.3,13.3-38.6,15.1
		c-18.3,1.8-73.8,4.8-93.7,4.9c-19.9,0.1-37.4,3.6-60.6-16.3c-2.6-2.2-4.9-4.2-6.9-5.9c2.7,30,69.3,30.3,92.7,35.5
		c23.6,5.2,84.7-9.3,104.8-16.4C606.2,243.7,604.7,216.1,587.8,205.5z"/>
	<g class="st4">
		<path class="st5" d="M588.9,206.3c1.1,11,7.5,24,4.4,30.9c-4.5,9.8-12.8,11.1-41.2,17.5c-28.4,6.4-71.9-2.6-101.9,4.6
			c-4.5,1.1-8.8,1.4-13,1.3c17,3,34.4,4.3,44.2,6.5c23.6,5.2,84.7-9.3,104.8-16.4C605.8,243.8,604.8,217.3,588.9,206.3z"/>
		<path class="st5" d="M392.6,241.7c4.9,6.5,13.9,10.9,24.4,14.2c-13.1-5.5-21.7-14-21.7-14L392.6,241.7z"/>
	</g>
	<path class="st3" d="M544.7,196.1c0,0-36.1-11.5-32.8-8.7C515.1,190.1,550.9,206.3,544.7,196.1z"/>
	<path class="st2" d="M573.4,213.6c0,0-43.4,26.9-13.2,28.6S592.6,203.8,573.4,213.6z"/>
	<path class="st2" d="M575.5,215.4c0,0-36,23.9-10.7,26S591.6,206.7,575.5,215.4z"/>
	<path class="st2" d="M578,217.4c0,0-27.8,20.7-7.8,23.1C590.1,242.9,590.4,209.9,578,217.4z"/>
	<path class="st2" d="M410.5,237.3c0,0,45.4-49.5,6.6-41.1S389.6,256.7,410.5,237.3z"/>
	<path class="st2" d="M407.9,232c0,0,34.6-37.5,5.1-31.1S392,246.7,407.9,232z"/>
	<path class="st2" d="M405.3,230.9c0,0,28.3-32.7,3.3-27.9C383.6,207.8,392.2,243.6,405.3,230.9z"/>
	<path class="st2" d="M402.4,229.6c0,0,21.3-27.4,1.3-24.4C383.9,208.3,392.5,240.2,402.4,229.6z"/>
	<g>
		<path class="st1" d="M472.7,251.9c0,0,2.9,11.5,8.6,12.5c5.7,1.1,14.3,3.5,15.1-2.6c0.8-6.2-8-15.1-8-15.1L472.7,251.9z"/>
		<path class="st1" d="M480.7,190.7c0,0,6.8-9.7,12.5-8.6s14.6,1.9,13.2,7.9c-1.5,6-12.9,11.2-12.9,11.2L480.7,190.7z"/>
		<path class="st7" d="M477.3,191.4c-14.2,3.3-22.9,12.1-26.6,23.2c-0.9,0.1-2.6,1.5-3.7,1.8c-7.1,2-6.8,4.6-6.8,4.6
			c-0.2,1.3,4.3,4.9,8,7.1c0.1,2.1,0.4,4,0.9,5.9c0.1,0.2,0.1,0.4,0.2,0.6c6.8,22.5,28.5,21.5,28.5,21.5S499.2,186.2,477.3,191.4z"
			/>
		<path class="st3" d="M457.1,236.8c-2.3-3.8-4.6-5-5.3-1c-0.2,1.2-0.5,2.4-0.7,3.5c3.2,6.9,7.9,11,12.6,13.4
			C462.9,242.9,459.3,240.5,457.1,236.8z"/>
		<path class="st3" d="M469.4,194c-6.2,2.8-11,6.9-14.4,11.8c-0.2,3.3-0.3,6.4,0,6.5c0.7,0.2,1.1-2.3,2.7-6.2s4.5-5.5,4.5-5.5
			l3.2,4.5C465.4,205.1,468.5,198.7,469.4,194z"/>
		<g>
			<path d="M528.6,254c0,0-31.8,21.8-56.6,1.2c-24.7-20.6-14.8-38.1-11.6-45.9c3.1-7.8-1.3-11.2,11.1-19
				c12.4-7.8,62.8-12.1,65.7,17.6C537.2,207.9,552.4,244.1,528.6,254z"/>
		</g>
	</g>
	<path class="st2" d="M762.1,83c0,0,48.7,57.9,51.1,18.2S749,57.7,762.1,83z"/>
	<path class="st3" d="M748.2,220.4c3.2,8.2,9.4,19.1,16.3,29.2c-0.3-3.4-0.3-7.5,0.7-11.1C765.2,238.5,755.9,228.1,748.2,220.4z"/>
	<path class="st3" d="M763.3,223.5c0,0-8.2-25.9-9.5-34.3c-1.4-8.3,3.4-9.5,4-0.1S769.1,222.1,763.3,223.5z"/>
	<path class="st3" d="M760.4,179.8c0,0,7.2,37.3,27,38.8c19.8,1.5,37.8-12,35.5-41.8c-2.3-29.8-24.5-33.1-24.5-33.1L760.4,179.8z"/>
	<path class="st1" d="M775.9,194.2c0,0,4.6,10.9,10.4,11.1c5.8,0.2,14.7,1.4,14.6-4.8s-10.2-13.7-10.2-13.7L775.9,194.2z"/>
	<path class="st1" d="M774.9,132.5c0,0,5.3-10.6,11.1-10.4c5.8,0.2,14.7-0.3,14.2,5.9c-0.6,6.2-11.1,12.9-11.1,12.9L774.9,132.5z"/>
	<path class="st3" d="M748,122.4c6-5,14.6-17.2,17.5-27.8c1.6-5.8-13-10.1-12.7-14.4C745.9,93.5,750.5,110.8,748,122.4z"/>
	<path class="st3" d="M759.8,67.5c-0.4,0.7-0.9,1.4-1.3,2.1c9.8-3.6,21.6-6.4,29.4-2.8c15.5,7.2,26.6,21.2,28.4,39.4
		c1.8,18.3,4.8,73.8,4.9,93.7c0.1,19.9,3.6,37.4-16.3,60.6c-2.2,2.6-4.2,4.9-5.9,6.9c30-2.7,30.3-69.3,35.5-92.7
		c5.2-23.6-22.6-85.5-29.6-105.7S770.4,50.5,759.8,67.5z"/>
	<g class="st4">
		<path class="st5" d="M760.6,66.4c11-1.1,24-7.5,30.9-4.4c9.8,4.5,19,12.5,25.4,40.9s2.7,73,9.9,103c1.1,4.5,1.4,8.8,1.3,13
			c3-17,4.3-34.4,6.5-44.2c5.2-23.6-22.6-85.5-29.6-105.7C798.1,49.5,771.6,50.5,760.6,66.4z"/>
		<path class="st5" d="M809.3,263.5c6.5-4.9,10.9-13.9,14.2-24.4c-5.5,13.1-14,21.7-14,21.7L809.3,263.5z"/>
	</g>
	<path class="st1" d="M771.5,133.7c-13.6,5.4-20.9,15.3-22.9,26.9c-0.8,0.2-2.3,1.9-3.4,2.4c-6.7,3.1-6,5.6-6,5.6
		c0,1.3,4.9,4.2,9,5.9c0.4,2,1,3.9,1.8,5.7c0.1,0.2,0.2,0.4,0.3,0.6c10.1,21.2,31.3,17.1,31.3,17.1S792.5,125.3,771.5,133.7z"/>
	<path class="st3" d="M758.2,181.6c-2.8-3.4-5.3-4.3-5.4-0.2c0,1.2-0.1,2.5-0.1,3.6c4.2,6.3,9.5,9.7,14.4,11.4
		C765,186.8,761.1,184.9,758.2,181.6z"/>
	<path class="st3" d="M764.1,137.4c-5.8,3.7-9.9,8.4-12.5,13.8c0.3,3.3,0.6,6.4,1,6.5c0.7,0.1,0.8-2.4,1.8-6.5
		c1-4.1,3.7-6.2,3.7-6.2l3.9,3.9C761.8,149,763.9,142.2,764.1,137.4z"/>
	<path class="st3" d="M763.6,111.4c0,0-11.5,36.1-8.7,32.8C757.6,141,773.8,105.2,763.6,111.4z"/>
	<path class="st2" d="M767.9,81.9c0,0,40.1,44.2,41.8,14.1C811.5,65.8,758,62.7,767.9,81.9z"/>
	<path class="st2" d="M769.7,79.8c0,0,37.2,36.9,39.2,11.5C811,65.9,760.9,63.7,769.7,79.8z"/>
	<path class="st2" d="M771.7,77.3c0,0,20.7,27.8,23.1,7.8C797.2,65.2,764.2,64.9,771.7,77.3z"/>
	<path class="st2" d="M804.8,245.6c0,0-49.5-45.4-41.1-6.6C772.1,278,824.2,266.5,804.8,245.6z"/>
	<path class="st2" d="M799.5,248.2c0,0-37.5-34.6-31.1-5.1C774.8,272.7,814.2,264.1,799.5,248.2z"/>
	<g>
		<path d="M831.6,188c0,0-28.3,26.3-55.8,9.6s-20.2-35.5-18.3-43.7c2-8.2-2.9-10.9,8.2-20.4s60.3-21.3,67.6,7.7
			C833.3,141.1,853.6,174.7,831.6,188z"/>
	</g>
	<path class="st8" d="M317.1,284.4H108.8c-5.9,0-10.7-4.8-10.7-10.7v-0.9c0-5.9,4.8-10.7,10.7-10.7h208.4c5.9,0,10.7,4.8,10.7,10.7
		v0.9C327.9,279.6,323.1,284.4,317.1,284.4z"/>
	<path class="st1" d="M688.6,835.9c0,0-6.3-15.2,9.1-27.1c15.3-11.9,35.8-23.6,45.7-25.1c24.8-3.8,32.8,4,43.5,6
		c10.7,2,24.8-3.3,37.3-4.9c12.5-1.6,46.7,15.4,63.7,25.9s18.5,38.1-1.6,45.1s-81.2,21.6-104.8,16.4
		C757.7,867,690.2,866.7,688.6,835.9z"/>
	<path class="st2" d="M872.4,813c0,0-57,35.5-17.4,37.9C894.7,853.2,897.7,799.9,872.4,813z"/>
	<path class="st3" d="M735.8,785.9c-8.2,3.2-19.1,9.4-29.2,16.3c3.4-0.3,7.5-0.3,11.1,0.7C717.7,802.9,728.1,793.6,735.8,785.9z"/>
	<path class="st3" d="M732.7,800.9c0,0,25.9-8.2,34.3-9.5c8.3-1.4,9.5,3.4,0.1,4C757.7,796.1,734.1,806.8,732.7,800.9z"/>
	<path class="st3" d="M776.4,798.1c0,0-37.3,7.2-38.8,27c-1.5,19.8,12,37.8,41.8,35.5c29.8-2.3,33.1-24.5,33.1-24.5L776.4,798.1z"/>
	<path class="st1" d="M762,813.6c0,0-10.9,4.6-11.1,10.4c-0.2,5.8-1.4,14.7,4.8,14.6s13.7-10.2,13.7-10.2L762,813.6z"/>
	<path class="st1" d="M823.8,812.5c0,0,10.6,5.3,10.4,11.1c-0.2,5.8,0.3,14.7-5.9,14.2c-6.2-0.6-12.9-11.1-12.9-11.1L823.8,812.5z"
		/>
	<path class="st3" d="M833.8,785.7c5,6,17.2,14.6,27.8,17.5c5.8,1.6,9.2,0.2,13.5,0.5C861.9,796.8,845.4,788.2,833.8,785.7z"/>
	<path class="st3" d="M887.9,810.7c-0.7-0.4-1.4-0.9-2.1-1.3c3.6,9.8,6.4,21.6,2.8,29.4c-7.2,15.5-20.3,13.3-38.6,15.1
		c-18.3,1.8-73.8,4.8-93.7,4.9c-19.9,0.1-37.4,3.6-60.6-16.3c-2.6-2.2-4.9-4.2-6.9-5.9c2.7,30,69.3,30.3,92.7,35.5
		c23.6,5.2,84.7-9.3,104.8-16.4S904.8,821.3,887.9,810.7z"/>
	<g class="st4">
		<path class="st5" d="M889,811.5c1.1,11,7.5,24,4.4,30.9c-4.5,9.8-12.8,11.1-41.2,17.5c-28.4,6.4-71.9-2.6-101.9,4.6
			c-4.5,1.1-8.8,1.4-13,1.3c17,3,34.4,4.3,44.2,6.5c23.6,5.2,84.7-9.3,104.8-16.4C905.9,849,904.9,822.5,889,811.5z"/>
		<path class="st5" d="M692.7,846.9c4.9,6.5,13.9,10.9,24.4,14.2c-13.1-5.5-21.7-14-21.7-14L692.7,846.9z"/>
	</g>
	<path class="st1" d="M822.6,809.2c-5.4-13.6-15.3-20.9-26.9-22.9c-0.2-0.8-1.9-2.3-2.4-3.4c-3.1-6.7-5.6-6-5.6-6
		c-1.3,0-4.2,4.9-5.9,9c-2,0.4-3.9,1-5.7,1.8c-0.2,0.1-0.4,0.2-0.6,0.3c-21.2,10.1-17.1,31.3-17.1,31.3S830.9,830.2,822.6,809.2z"/>
	<path class="st3" d="M774.7,795.9c3.4-2.8,4.3-5.3,0.2-5.4c-1.2,0-2.5-0.1-3.6-0.1c-6.3,4.2-9.7,9.5-11.4,14.4
		C769.5,802.6,771.3,798.7,774.7,795.9z"/>
	<path class="st3" d="M818.8,801.8c-3.7-5.8-8.4-9.9-13.8-12.5c-3.3,0.3-6.4,0.6-6.5,1c-0.1,0.7,2.4,0.8,6.5,1.8
		c4.1,1,6.2,3.7,6.2,3.7l-3.9,3.9C807.2,799.5,814,801.6,818.8,801.8z"/>
	<path class="st3" d="M844.8,801.3c0,0-36.1-11.5-32.8-8.7C815.2,795.3,851,811.4,844.8,801.3z"/>
	<path class="st2" d="M710.6,842.5c0,0,45.4-49.5,6.6-41.1S689.7,861.9,710.6,842.5z"/>
	<path class="st2" d="M708,837.2c0,0,34.6-37.5,5.1-31.1C683.5,812.5,692.1,851.9,708,837.2z"/>
	<path class="st2" d="M705.4,836.1c0,0,28.3-32.7,3.3-27.9S692.3,848.8,705.4,836.1z"/>
	<path class="st2" d="M702.5,834.8c0,0,21.3-27.4,1.3-24.4C684,813.5,692.6,845.4,702.5,834.8z"/>
	<g>
		<path d="M768.3,869.2c0,0-26.3-28.3-9.6-55.8c16.7-27.5,35.5-20.2,43.7-18.3s10.9-2.9,20.4,8.2c9.5,11.1,21.3,60.3-7.7,67.6
			C815.1,870.9,781.5,891.2,768.3,869.2z"/>
	</g>
	<path class="st8" d="M900.8,889.6H692.4c-5.9,0-10.7-4.8-10.7-10.7V878c0-5.9,4.8-10.7,10.7-10.7h208.4c5.9,0,10.7,4.8,10.7,10.7
		v0.9C911.5,884.8,906.7,889.6,900.8,889.6z"/>
	<path class="st1" d="M602,512.7c0,0,6.3,15.2-9,27.1c-15.3,11.9-35.8,23.7-45.6,25.2c-24.8,3.8-32.8-3.9-43.5-5.9
		c-10.7-2-24.8,3.4-37.3,5c-12.5,1.6-46.7-15.3-63.7-25.8c-17-10.5-18.6-38.1,1.5-45.1c20.1-7.1,81.1-21.8,104.8-16.6
		C532.8,481.8,600.4,481.9,602,512.7z"/>
	<path class="st2" d="M418.2,531.9c0,0,57-35.6,17.3-37.9C395.8,491.7,392.9,545,418.2,531.9z"/>
	<path class="st3" d="M554.9,558.7c8.2-3.3,19.1-9.5,29.2-16.4c-3.4,0.3-7.5,0.3-11.1-0.6C572.9,541.6,562.5,551,554.9,558.7z"/>
	<path class="st3" d="M558,543.6c0,0-25.9,8.2-34.2,9.6c-8.3,1.4-9.5-3.4-0.1-4C533,548.6,556.5,537.8,558,543.6z"/>
	<path class="st3" d="M514.2,546.6c0,0,37.3-7.3,38.8-27.1c1.5-19.8-12.1-37.8-41.9-35.4c-29.8,2.4-33,24.6-33,24.6L514.2,546.6z"/>
	<path class="st3" d="M456.9,559.1c-5-6-17.2-14.6-27.9-17.4c-5.8-1.5-9.2-0.2-13.5-0.5C428.8,548.1,445.3,556.6,456.9,559.1z"/>
	<path class="st3" d="M402.8,538.3c0.7,0.4,1.4,0.9,2.1,1.3c-3.7-9.8-6.4-21.6-2.8-29.4c7.1-15.5,20.3-13.4,38.6-15.2
		s73.8-4.9,93.6-5.1c19.9-0.2,37.4-3.7,60.7,16.1c2.6,2.2,4.9,4.2,6.9,5.9c-2.8-30-69.4-30.2-92.8-35.3
		c-23.7-5.2-84.7,9.5-104.8,16.6C384.2,500.2,385.8,527.8,402.8,538.3z"/>
	<g class="st4">
		<path class="st5" d="M401.7,537.6c-1.1-11-7.6-24-4.4-30.9c4.5-9.8,12.8-11.1,41.1-17.6c28.3-6.5,71.9,2.4,101.9-4.8
			c4.5-1.1,8.8-1.4,13-1.3c-17.1-3-34.4-4.2-44.2-6.4c-23.7-5.2-84.7,9.5-104.8,16.6C384.7,500.1,385.7,526.6,401.7,537.6z"/>
		<path class="st5" d="M597.9,501.7c-4.9-6.5-13.9-10.9-24.4-14.1c13.1,5.5,21.7,13.9,21.7,13.9L597.9,501.7z"/>
	</g>
	<path class="st3" d="M445.9,547.6c0,0,36.1,11.4,32.8,8.7C475.5,553.6,439.6,537.5,445.9,547.6z"/>
	<path class="st2" d="M417.2,526.1c0,0,43.3-26.9,13.2-28.6C400.2,495.8,397.9,536,417.2,526.1z"/>
	<path class="st2" d="M415,524.3c0,0,36-24,10.6-26C400.2,496.3,399,533.1,415,524.3z"/>
	<path class="st2" d="M412.6,522.3c0,0,27.8-20.8,7.8-23.1S400.1,529.9,412.6,522.3z"/>
	<path class="st2" d="M580,502c0,0-45.3,49.6-6.5,41.1C612.4,534.7,600.9,482.6,580,502z"/>
	<path class="st2" d="M582.6,507.3c0,0-34.5,37.6-5,31.1C607.1,531.9,598.5,492.6,582.6,507.3z"/>
	<path class="st2" d="M585.2,508.4c0,0-28.2,32.8-3.2,27.9C606.9,531.5,598.2,495.7,585.2,508.4z"/>
	<path class="st2" d="M588,509.7c0,0-21.2,27.5-1.3,24.4S598,499.1,588,509.7z"/>
	<g>
		<path class="st1" d="M528.6,531c0,0,10.9-4.6,11.1-10.4c0.2-5.8,1.3-14.7-4.9-14.6s-13.7,10.2-13.7,10.2L528.6,531z"/>
		<path class="st1" d="M466.9,536.4c0,0-10.6-5.3-10.4-11.1c0.2-5.8-0.3-14.7,5.9-14.2c6.2,0.5,13,11.1,13,11.1L466.9,536.4z"/>
		<path class="st1" d="M468.1,539.7c5.4,13.6,15.4,20.8,26.9,22.8c0.2,0.8,1.9,2.3,2.4,3.4c3.1,6.7,5.6,6,5.6,6c1.3,0,4.2-5,5.8-9
			c2-0.4,3.9-1,5.7-1.8c0.2-0.1,0.4-0.2,0.6-0.3c21.2-10.1,17-31.4,17-31.4S459.7,518.8,468.1,539.7z"/>
		<path class="st3" d="M516,548.7c-3.4,2.8-4.3,5.3-0.2,5.4c1.2,0,2.5,0.1,3.6,0.1c6.3-4.2,9.7-9.5,11.4-14.4
			C521.2,542,519.4,545.9,516,548.7z"/>
		<path class="st3" d="M471.9,547.1c3.7,5.8,8.5,9.9,13.9,12.5c3.3-0.3,6.4-0.7,6.5-1c0.1-0.7-2.4-0.8-6.5-1.8
			c-4.1-1-6.2-3.7-6.2-3.7l3.9-3.9C483.5,549.3,476.6,547.3,471.9,547.1z"/>
		<g>
			<path d="M522.3,479.5c0,0,26.3,28.2,9.7,55.8c-16.7,27.6-35.4,20.3-43.6,18.4c-8.2-1.9-10.9,2.9-20.4-8.1
				c-9.5-11.1-21.4-60.3,7.5-67.6C475.4,477.9,508.9,457.6,522.3,479.5z"/>
		</g>
	</g>
	<path class="st8" d="M603.2,584.5H394.8c-5.9,0-10.7-4.8-10.7-10.7v-0.9c0-5.9,4.8-10.7,10.7-10.7h208.4c5.9,0,10.7,4.8,10.7,10.7
		v0.9C613.9,579.7,609.1,584.5,603.2,584.5z"/>
	<path class="st8" d="M900,284.4H691.6c-5.9,0-10.7-4.8-10.7-10.7v-0.9c0-5.9,4.8-10.7,10.7-10.7H900c5.9,0,10.7,4.8,10.7,10.7v0.9
		C910.7,279.6,905.9,284.4,900,284.4z"/>
	<path class="st8" d="M600.7,284.4H392.3c-5.9,0-10.7-4.8-10.7-10.7v-0.9c0-5.9,4.8-10.7,10.7-10.7h208.4c5.9,0,10.7,4.8,10.7,10.7
		v0.9C611.4,279.6,606.6,284.4,600.7,284.4z"/>
	<path class="st1" d="M388.5,835c0,0-6.3-15.2,9.1-27.1c15.3-11.9,35.8-23.6,45.7-25.1c24.8-3.8,32.8,4,43.5,6
		c10.7,2,24.8-3.3,37.3-4.9c12.5-1.6,46.7,15.4,63.7,25.9c17,10.5,18.5,38.1-1.6,45.1c-20.1,7-81.2,21.6-104.8,16.4
		C457.6,866.2,390.1,865.8,388.5,835z"/>
	<path class="st2" d="M572.3,812.1c0,0-57,35.5-17.4,37.9C594.6,852.4,597.6,799.1,572.3,812.1z"/>
	<path class="st3" d="M435.7,785.1c-8.2,3.2-19.1,9.4-29.2,16.3c3.4-0.3,7.5-0.3,11.1,0.7C417.6,802.1,428,792.8,435.7,785.1z"/>
	<path class="st3" d="M432.6,800.1c0,0,25.9-8.2,34.3-9.5c8.3-1.4,9.5,3.4,0.1,4S434,806,432.6,800.1z"/>
	<path class="st3" d="M501,856.9c0,0,37.9,2.8,44.6-15.9c6.7-18.7-1.6-39.6-31-45.2c-29.4-5.6-38.4,15-38.4,15L501,856.9z"/>
	<path class="st3" d="M533.7,784.8c5,6,17.2,14.6,27.8,17.5c5.8,1.6,9.2,0.2,13.5,0.5C561.8,795.9,545.3,787.4,533.7,784.8z"/>
	<path class="st3" d="M587.8,809.9c-0.7-0.4-1.4-0.9-2.1-1.3c3.6,9.8,6.4,21.6,2.8,29.4c-7.2,15.5-20.3,13.3-38.6,15.1
		c-18.3,1.8-73.8,4.8-93.7,4.9c-19.9,0.1-37.4,3.6-60.6-16.3c-2.6-2.2-4.9-4.2-6.9-5.9c2.7,30,69.3,30.3,92.7,35.5
		c23.6,5.2,84.7-9.3,104.8-16.4C606.2,848,604.7,820.4,587.8,809.9z"/>
	<g class="st4">
		<path class="st5" d="M588.9,810.6c1.1,11,7.5,24,4.4,30.9c-4.5,9.8-12.8,11.1-41.2,17.5c-28.4,6.4-71.9-2.6-101.9,4.6
			c-4.5,1.1-8.8,1.4-13,1.3c17,3,34.4,4.3,44.2,6.5c23.6,5.2,84.7-9.3,104.8-16.4C605.8,848.2,604.8,821.7,588.9,810.6z"/>
		<path class="st5" d="M392.6,846.1c4.9,6.5,13.9,10.9,24.4,14.2c-13.1-5.5-21.7-14-21.7-14L392.6,846.1z"/>
	</g>
	<path class="st3" d="M544.7,800.5c0,0-36.1-11.5-32.8-8.7S550.9,810.6,544.7,800.5z"/>
	<path class="st2" d="M573.4,818c0,0-43.4,26.9-13.2,28.6C590.3,848.3,592.6,808.1,573.4,818z"/>
	<path class="st2" d="M575.5,819.7c0,0-36,23.9-10.7,26S591.6,811,575.5,819.7z"/>
	<path class="st2" d="M578,821.7c0,0-27.8,20.7-7.8,23.1C590.1,847.2,590.4,814.2,578,821.7z"/>
	<path class="st2" d="M410.5,841.7c0,0,45.4-49.5,6.6-41.1S389.6,861,410.5,841.7z"/>
	<path class="st2" d="M407.9,836.4c0,0,34.6-37.5,5.1-31.1S392,851,407.9,836.4z"/>
	<path class="st2" d="M405.3,835.2c0,0,28.3-32.7,3.3-27.9S392.2,848,405.3,835.2z"/>
	<path class="st2" d="M402.4,834c0,0,21.3-27.4,1.3-24.4C383.9,812.7,392.5,844.5,402.4,834z"/>
	<g>
		<path class="st1" d="M513.1,801.6c0,0-4.5-11-10.2-11.2s-14.7-1.5-14.6,4.7c0.1,6.2,10,13.8,10,13.8L513.1,801.6z"/>
		<path class="st1" d="M513.6,863.4c0,0-5.4,10.5-11.2,10.2c-5.8-0.3-14.7,0.2-14.1-6c0.6-6.2,11.2-12.8,11.2-12.8L513.6,863.4z"/>
		<path class="st7" d="M516.9,862.2c13.6-5.3,21-15.1,23.1-26.7c0.8-0.2,2.4-1.9,3.4-2.3c6.8-3,6-5.5,6-5.5c0.1-1.3-4.9-4.2-8.9-5.9
			c-0.4-2-1-3.9-1.7-5.7c-0.1-0.2-0.2-0.4-0.3-0.6c-9.9-21.3-31.2-17.4-31.2-17.4S495.9,870.3,516.9,862.2z"/>
		<path class="st3" d="M530.7,814.4c2.8,3.4,5.2,4.4,5.4,0.2c0.1-1.2,0.1-2.5,0.2-3.6c-4.1-6.4-9.4-9.8-14.3-11.5
			C524,809.2,527.9,811,530.7,814.4z"/>
		<path class="st3" d="M524.4,858.5c5.8-3.6,10-8.3,12.6-13.7c-0.3-3.3-0.6-6.4-0.9-6.5c-0.7-0.1-0.8,2.4-1.8,6.5
			c-1,4.1-3.7,6.1-3.7,6.1l-3.8-4C526.7,846.9,524.6,853.7,524.4,858.5z"/>
		<g>
			<path d="M457.4,807.3c0,0,28.5-26,55.9-9c27.4,17,19.9,35.7,17.9,43.9c-2,8.2,2.8,10.9-8.4,20.3c-11.2,9.4-60.5,20.7-67.5-8.3
				C455.2,854.1,435.3,820.4,457.4,807.3z"/>
		</g>
	</g>
	<path class="st8" d="M600.7,888.8H392.3c-5.9,0-10.7-4.8-10.7-10.7v-0.9c0-5.9,4.8-10.7,10.7-10.7h208.4c5.9,0,10.7,4.8,10.7,10.7
		v0.9C611.4,884,606.6,888.8,600.7,888.8z"/>
	<path class="st1" d="M899.7,512.5c0,0,6.3,15.2-9.1,27.1c-15.3,11.9-35.8,23.6-45.7,25.1c-24.8,3.8-32.8-4-43.5-6
		c-10.7-2-24.8,3.3-37.3,4.9c-12.5,1.6-46.7-15.4-63.7-25.9s-18.5-38.1,1.6-45.1c20.1-7,81.2-21.6,104.8-16.4
		C830.5,481.4,898.1,481.7,899.7,512.5z"/>
	<path class="st2" d="M715.9,535.4c0,0,57-35.5,17.4-37.9C693.6,495.2,690.6,548.5,715.9,535.4z"/>
	<path class="st2" d="M712.5,536.1c0,0,42.5-32.1,11.9-35.9S693.5,547.7,712.5,536.1z"/>
	<path class="st2" d="M713.1,531.3c0,0,25.1-25.3,5.8-29.9C699.7,496.8,701.8,540.3,713.1,531.3z"/>
	<path class="st3" d="M832.5,525.6c7.9-3.1,18.4-9.1,28-15.7c-3.2,0.3-7.2,0.3-10.6-0.6C849.9,509.2,839.9,518.2,832.5,525.6z"/>
	<path class="st3" d="M855.6,547.5c0,0-25.9,8.2-34.3,9.5s-9.5-3.4-0.1-4C830.6,552.3,854.2,541.6,855.6,547.5z"/>
	<path class="st3" d="M828,491.9c0,0,23.5,9.4,23.3,29.3c-0.2,19.8-10,37-29,32.9c-19-4.1-19.8-26.4-19.8-26.4L828,491.9z"/>
	<path class="st3" d="M754.4,562.7c-5-6-17.2-14.6-27.8-17.5c-5.8-1.6-9.2-0.2-13.5-0.5C726.4,551.6,742.9,560.2,754.4,562.7z"/>
	<path class="st3" d="M700.4,537.7c0.7,0.4,1.4,0.9,2.1,1.3c-3.6-9.8-6.4-21.6-2.8-29.4c7.2-15.5,20.3-13.3,38.6-15.1
		c18.3-1.8,73.8-4.8,93.7-4.9c19.9-0.1,37.4-3.6,60.6,16.3c2.6,2.2,4.9,4.2,6.9,5.9c-2.7-30-69.3-30.3-92.7-35.5
		c-23.6-5.2-84.7,9.3-104.8,16.4C682,499.6,683.4,527.2,700.4,537.7z"/>
	<g class="st4">
		<path class="st5" d="M699.3,537c-1.1-11-7.5-24-4.4-30.9c4.5-9.8,12.8-11.1,41.2-17.5c28.4-6.4,71.9,2.6,101.9-4.6
			c4.5-1.1,8.8-1.4,13-1.3c-17-3-34.4-4.3-44.2-6.5c-23.6-5.2-84.7,9.3-104.8,16.4C682.4,499.4,683.4,525.9,699.3,537z"/>
		<path class="st5" d="M895.6,501.5c-4.9-6.5-13.9-10.9-24.4-14.2c13.1,5.5,21.7,14,21.7,14L895.6,501.5z"/>
	</g>
	<path class="st3" d="M743.5,547.1c0,0,36.1,11.5,32.8,8.7C773.1,553.2,737.3,537,743.5,547.1z"/>
	<path class="st2" d="M875.8,505.2c0,0-43.6,47.6-6.3,39.5S895.8,486.6,875.8,505.2z"/>
	<path class="st2" d="M878.3,510.3c0,0-33.2,36-4.9,29.9C901.8,534,893.5,496.2,878.3,510.3z"/>
	<g>
		<path class="st1" d="M810,492.2c0,0-5.2-10.6-11-10.5s-14.7-0.5-14.3,5.7s11,13.1,11,13.1L810,492.2z"/>
		<path class="st1" d="M814.7,553.8c0,0-4.7,10.9-10.5,11s-14.7,1.2-14.5-5c0.2-6.2,10.3-13.6,10.3-13.6L814.7,553.8z"/>
		<path class="st7" d="M818,552.4c13.2-6.2,19.9-16.5,21.2-28.2c0.8-0.2,2.2-2,3.2-2.6c6.5-3.5,5.6-5.9,5.6-5.9
			c0-1.3-5.2-3.9-9.3-5.3c-0.5-2-1.2-3.9-2.1-5.6c-0.1-0.2-0.2-0.4-0.3-0.6c-11.3-20.6-32.3-15.2-32.3-15.2S797.6,561.9,818,552.4z"
			/>
		<path class="st3" d="M828.4,503.7c3,3.2,5.5,4,5.4-0.1c0-1.2-0.1-2.5-0.1-3.6c-4.5-6.1-10-9.1-15.1-10.5
			C821.4,499,825.4,500.6,828.4,503.7z"/>
		<path class="st3" d="M825.2,548.1c5.5-4,9.4-9,11.6-14.6c-0.5-3.3-1-6.4-1.4-6.4c-0.7,0-0.7,2.4-1.4,6.6s-3.3,6.4-3.3,6.4
			l-4.1-3.7C826.7,536.4,825.1,543.4,825.2,548.1z"/>
		<g>
			<path d="M754.8,501.8c0,0,26.6-27.9,55.1-12.9s22.3,34.2,20.9,42.5c-1.5,8.3,3.6,10.7-7,20.8c-10.5,10.2-59,24.8-67.9-3.6
				C755.9,548.6,733.6,516.3,754.8,501.8z"/>
		</g>
	</g>
	<path class="st8" d="M900.8,582H692.4c-5.9,0-10.7-4.8-10.7-10.7v-0.9c0-5.9,4.8-10.7,10.7-10.7h208.4c5.9,0,10.7,4.8,10.7,10.7
		v0.9C911.5,577.2,906.7,582,900.8,582z"/>
	<path class="st6" d="M749.3,143.7c0,0-21.4-18.1,3.5-63.6"/>
	<path class="st2" d="M742.3,76.8c0,0,4.4-1.8-3.6,8.8s-36.1,59.5-26.5,54.2S745.5,88.5,742.3,76.8z"/>
	<path class="st2" d="M736.5,81.7c0,0,6.7-1.3,0.7,7.1s-26.9,47-19.7,42.8S738.9,90.9,736.5,81.7z"/>
	<path class="st2" d="M732.4,86.6c0,0,8.1-0.8,3.4,5.8c-4.7,6.6-21,36.8-15.4,33.5C726.1,122.6,734.3,93.8,732.4,86.6z"/>
	<path class="st2" d="M730.8,87.4c0,0,8.7-0.6,4.7,5.1c-4.1,5.7-18.4,32.1-13.5,29.2C726.9,118.9,732.4,93.7,730.8,87.4z"/>
	<path class="st2" d="M715.3,144.4c0,0-8.4-2-13.6,12.2s-20.7,78.6-13.1,70.6C696.2,219.4,720.4,158.4,715.3,144.4z"/>
	<path class="st2" d="M711.1,151.3c0,0-6.3-1.6-10,9.6s-14.9,61.8-9.3,55.6S715,162.3,711.1,151.3z"/>
	<path class="st2" d="M708.4,157.9c0,0-4.9-1.3-7.8,7.5s-11.6,48.4-7.2,43.6C697.7,204.1,711.4,166.6,708.4,157.9z"/>
	<path class="st2" d="M707,159.1c0,0-4.3-1.1-6.9,6.5c-2.5,7.7-10.2,42.2-6.4,38S709.7,166.7,707,159.1z"/>
	<g>
		<path class="st1" d="M221.3,370.1c-4.1-11.6-14.9-15.4-25.7-15.4c0.2-0.4-22.3,5.8-22.3,5.8s-24.8,10.7-41.8,60.8
			c-20.2,59.8-25.6,90.9-31.4,107.5c-5.8,16.5-12.4,33.9-11.6,47.1c0.8,13.2,24,21.5,27.3,14.9s-7.4-5.8-7.4-5.4s0-22.7,0-22.3h6.2
			c0,0-4.6-3.7-2.1-18.6c2.5-14.9,19-36.4,24-51.3c3.3-9.8,17.3-29.7,29.1-48.5c2,9.1,4.2,18.2,2.7,25.6c-2,10.7-9.8,18.7-6,43.5
			c1.5,9.9,13.3,30.4,25.1,45.7c11.9,15.3,27.1,9.1,27.1,9.1c30.8-1.6,31.1-69.1,36.3-92.8C256.1,452.1,228.3,390.2,221.3,370.1z"/>
		<path class="st2" d="M178.4,383.9c0,0,48.7,57.9,51.1,18.2C231.8,362.4,165.4,358.6,178.4,383.9z"/>
		<path class="st3" d="M164.5,521.3c3.2,8.2,9.4,19.1,16.3,29.2c-0.3-3.4-0.3-7.5,0.7-11.1C181.5,539.4,172.2,529,164.5,521.3z"/>
		<path class="st3" d="M179.6,524.5c0,0-8.2-25.9-9.5-34.3s3.4-9.5,4-0.1C174.7,499.5,185.5,523,179.6,524.5z"/>
		<path class="st3" d="M176.7,480.7c0,0,7.2,37.3,27,38.8s37.8-12,35.5-41.8c-2.3-29.8-24.5-33.1-24.5-33.1L176.7,480.7z"/>
		<path class="st3" d="M164.3,423.3c6-5,14.6-17.2,17.5-27.8c1.6-5.8-13-10.1-12.7-14.4C162.2,394.4,166.8,411.7,164.3,423.3z"/>
		<path class="st3" d="M176.1,368.5c-0.4,0.7-0.9,1.4-1.3,2.1c9.8-3.6,21.6-6.4,29.4-2.8c15.5,7.2,26.6,21.2,28.4,39.4
			c1.8,18.3,4.8,73.8,4.9,93.7c0.1,19.9,3.6,37.4-16.3,60.6c-2.2,2.6-4.2,4.9-5.9,6.9c30-2.7,30.3-69.3,35.5-92.7
			c5.2-23.6-22.6-85.5-29.6-105.7C214.3,350,186.7,351.5,176.1,368.5z"/>
		<g class="st4">
			<path class="st5" d="M176.9,367.4c11-1.1,24-7.5,30.9-4.4c9.8,4.5,19,12.5,25.4,40.9s2.7,73,9.9,103c1.1,4.5,1.4,8.8,1.3,13
				c3-17,4.3-34.4,6.5-44.2c5.2-23.6-22.6-85.5-29.6-105.7C214.4,350.4,187.9,351.4,176.9,367.4z"/>
			<path class="st5" d="M225.6,564.5c6.5-4.9,10.9-13.9,14.2-24.4c-5.5,13.1-14,21.7-14,21.7L225.6,564.5z"/>
		</g>
		<path class="st3" d="M180,412.4c0,0-11.5,36.1-8.7,32.8S190.1,406.1,180,412.4z"/>
		<path class="st2" d="M184.2,382.9c0,0,40.1,44.2,41.8,14.1C227.8,366.8,174.4,363.6,184.2,382.9z"/>
		<path class="st2" d="M186,380.7c0,0,37.2,36.9,39.2,11.5S177.3,364.7,186,380.7z"/>
		<path class="st2" d="M188,378.3c0,0,20.7,27.8,23.1,7.8S180.5,365.8,188,378.3z"/>
		<path class="st2" d="M221.2,546.6c0,0-49.5-45.4-41.1-6.6S240.5,567.5,221.2,546.6z"/>
		<path class="st2" d="M215.9,549.2c0,0-37.5-34.6-31.1-5.1C191.2,573.6,230.5,565.1,215.9,549.2z"/>
		<g>
			<path class="st1" d="M225.1,494.1c0,0,11.8-0.7,13.9-6.1c2.1-5.4,6.1-13.4,0.2-15.4c-5.9-1.9-16.3,5.1-16.3,5.1L225.1,494.1z"/>
			<path class="st1" d="M166.4,474.8c0,0-8.2-8.5-6.1-13.9c2.1-5.4,4.6-14,10.2-11.5s8.6,14.8,8.6,14.8L166.4,474.8z"/>
			<path class="st1" d="M166.4,478.4c0.6,14.6,7.6,24.8,17.9,30.5c-0.1,0.8,1,2.8,1.1,4c0.7,7.4,3.3,7.5,3.3,7.5
				c1.2,0.5,5.6-3.3,8.5-6.5c2,0.3,4,0.4,6,0.2c0.2,0,0.4,0,0.7-0.1c23.3-2.6,26.4-24,26.4-24S165.4,455.8,166.4,478.4z"/>
			<path class="st3" d="M207.3,506.6c-4.1,1.6-5.8,3.6-2,5.1c1.1,0.4,2.3,0.9,3.3,1.3c7.4-1.9,12.3-5.8,15.5-9.9
				C214.4,502,211.4,505.1,207.3,506.6z"/>
			<path class="st3" d="M167.6,486.6c1.6,6.6,4.7,12.1,9,16.4c3.2,0.8,6.3,1.5,6.4,1.2c0.3-0.6-2-1.5-5.6-3.8
				c-3.6-2.3-4.6-5.5-4.6-5.5l5-2.3C177.8,492.5,172,488.3,167.6,486.6z"/>
			<g>
				<path d="M237.4,439.5c0,0,15.5,35.3-9.3,55.8s-40.2,7.4-47.3,2.9c-7.1-4.5-11.2-0.8-16.6-14.4c-5.4-13.6-0.3-64,29.4-61.3
					C193.8,422.5,232.1,414.3,237.4,439.5z"/>
			</g>
		</g>
		<path class="st8" d="M316.3,585.4H107.9c-5.9,0-10.7-4.8-10.7-10.7v-0.9c0-5.9,4.8-10.7,10.7-10.7h208.4c5.9,0,10.7,4.8,10.7,10.7
			v0.9C327,580.6,322.2,585.4,316.3,585.4z"/>
		<path class="st6" d="M165.6,444.7c0,0-21.4-18.1,3.5-63.6"/>
		<path class="st2" d="M158.6,377.7c0,0,4.4-1.8-3.6,8.8c-8,10.6-36.1,59.5-26.5,54.2S161.8,389.4,158.6,377.7z"/>
		<path class="st2" d="M152.9,382.6c0,0,6.7-1.3,0.7,7.1c-6,8.4-26.9,47-19.7,42.8S155.3,391.8,152.9,382.6z"/>
		<path class="st2" d="M148.8,387.5c0,0,8.1-0.8,3.4,5.8c-4.7,6.6-21,36.8-15.4,33.5C142.4,423.5,150.6,394.8,148.8,387.5z"/>
		<path class="st2" d="M147.1,388.3c0,0,8.7-0.6,4.7,5.1c-4.1,5.7-18.4,32.1-13.5,29.2S148.8,394.6,147.1,388.3z"/>
		<path class="st2" d="M131.6,445.3c0,0-8.4-2-13.6,12.2c-5.1,14.3-20.7,78.6-13.1,70.6C112.5,520.3,136.8,459.3,131.6,445.3z"/>
		<path class="st2" d="M127.4,452.2c0,0-6.3-1.6-10,9.6s-14.9,61.8-9.3,55.6C113.7,511.2,131.4,463.2,127.4,452.2z"/>
		<path class="st2" d="M124.7,458.8c0,0-4.9-1.3-7.8,7.5c-2.9,8.8-11.6,48.4-7.2,43.6C114,505,127.8,467.5,124.7,458.8z"/>
		<path class="st2" d="M123.4,460.1c0,0-4.3-1.1-6.9,6.5c-2.5,7.7-10.2,42.2-6.4,38C114,500.4,126.1,467.6,123.4,460.1z"/>
	</g>
	<path class="st8" d="M316.3,887.9H107.9c-5.9,0-10.7-4.8-10.7-10.7v-0.9c0-5.9,4.8-10.7,10.7-10.7h208.4c5.9,0,10.7,4.8,10.7,10.7
		v0.9C327,883.1,322.2,887.9,316.3,887.9z"/>
	<text transform="matrix(1 0 0 1 194.4796 320.5486)" class="st9 st10">A</text>
	<text transform="matrix(1 0 0 1 488.797 320.5486)" class="st9 st10">B</text>
	<text transform="matrix(1 0 0 1 787.2486 320.5486)" class="st9 st10">C</text>
	<text transform="matrix(1 0 0 1 194.4796 627.2668)" class="st9 st10">D</text>
	<text transform="matrix(1 0 0 1 488.797 627.2668)" class="st9 st10">E</text>
	<text transform="matrix(1 0 0 1 787.2486 627.2668)" class="st9 st10">F</text>
	<text transform="matrix(1 0 0 1 194.4796 934.8127)" class="st9 st10">G</text>
	<text transform="matrix(1 0 0 1 488.797 934.8127)" class="st9 st10">H</text>
	<text transform="matrix(1 0 0 1 787.2486 934.8127)" class="st9 st10">I </text>
</g>
<g>
	<g>
		<path class="st11" d="M492,139c0,0-60.1,9-71.9,63"/>
		<g>
			<polygon class="st12" points="418.1,224.2 408.6,191.7 420.6,200.4 434.1,194.4 			"/>
		</g>
	</g>
</g>
<g>
	<g>
		<path class="st11" d="M131.7,451.7c0,0-5.5,60.5,44.2,84.8"/>
		<g>
			<polygon class="st12" points="197,543.6 163.2,545.1 174.5,535.6 171.8,521 			"/>
		</g>
	</g>
</g>
<g>
	<g>
		<path class="st11" d="M545.6,446.2c0,0-49.1-35.7-95.5-5.5"/>
		<g>
			<polygon class="st12" points="433.1,455.1 449.2,425.3 451.6,439.9 465.5,445.1 			"/>
		</g>
	</g>
</g>
<g>
	<g>
		<path class="st11" d="M632.2,817.2c0,0-11-59.7-65.4-69.8"/>
		<g>
			<polygon class="st12" points="544.5,746.2 576.7,735.6 568.4,747.9 574.9,761.2 			"/>
		</g>
	</g>
</g>
<g>
	<g>
		<path class="st11" d="M842.8,772.4c0,0-52.6-30.4-95.5,4.4"/>
		<g>
			<polygon class="st12" points="731.9,792.9 744.8,761.6 748.7,775.9 763,779.6 			"/>
		</g>
	</g>
</g>
<g>
	<g>
		<path class="st11" d="M337.4,711.3c0,0-6.6-60.4-60.1-74.4"/>
		<g>
			<polygon class="st12" points="255.3,634 288.1,625.9 278.9,637.5 284.4,651.2 			"/>
		</g>
	</g>
</g>
<g>
	<g>
		<path class="st11" d="M798.6,596.6c0,0,59.5-12.1,68.6-66.6"/>
		<g>
			<polygon class="st12" points="868.1,507.7 879.2,539.7 866.8,531.6 853.6,538.3 			"/>
		</g>
	</g>
</g>
<g>
	<g>
		<path class="st11" d="M887.3,163.5c0,0,7.2-60.3-41.8-86"/>
		<g>
			<polygon class="st12" points="824.7,69.7 858.6,69.2 847,78.4 849.2,93 			"/>
		</g>
	</g>
</g>
</svg>
