<?xml version="1.0" encoding="UTF-8"?><!-- Generator: Adobe Illustrator 26.3.1, SVG Export Plug-In . SVG Version: 6.00 Build 0)  --><svg width="456" height="380" viewBox="52.734375 167.96875 890.625 742.1875" xmlns="http://www.w3.org/2000/svg" xmlns:xlink="http://www.w3.org/1999/xlink" version="1.1" id="Layer_1" x="0px" y="0px" style="enable-background:new 0 0 1000 1000;" xml:space="preserve">
<style xmlns="http://www.w3.org/2000/svg" type="text/css">
	.st0{fill:#FFFFFF;}
	.st1{opacity:0.1;fill:#601D15;}
	.st2{opacity:7.000000e-02;fill:#FFFFFF;}
	.st3{fill:url(#SVGID_1_);stroke:#7A6F6F;stroke-width:2;stroke-miterlimit:10;}
	.st4{fill:#B5B5B5;stroke:#7A6F6F;stroke-width:2;stroke-miterlimit:10;}
	.st5{fill:#918A8A;stroke:#7A6F6F;stroke-width:2;stroke-miterlimit:10;}
	.st6{opacity:0.7;}
	.st7{fill:#3D82A8;stroke:#2E0700;stroke-miterlimit:10;}
	.st8{opacity:0.2;fill:#00151C;stroke:#2E0700;stroke-miterlimit:10;}
	.st9{opacity:5.000000e-02;fill:#FFFFFF;stroke:#2E0700;stroke-miterlimit:10;}
	.st10{opacity:7.000000e-02;fill:#FFFFFF;stroke:#2E0700;stroke-miterlimit:10;}
	.st11{opacity:0.2;}
	.st12{fill:#00151C;stroke:#2E0700;stroke-miterlimit:10;}
	.st13{fill:url(#SVGID_00000133506951345177411070000008850285723729710763_);}
	.st14{fill:url(#SVGID_00000147180663811159312000000013012900664724127108_);}
	.st15{fill:#737F5E;stroke:#2E0700;stroke-miterlimit:10;}
	.st16{opacity:0.1;fill:#00151C;stroke:#2E0700;stroke-miterlimit:10;}
	.st17{fill:#BC8579;stroke:#2E0700;stroke-miterlimit:10;}
	.st18{opacity:0.3;}
	.st19{fill:#601D15;stroke:#2E0700;stroke-miterlimit:10;}
	.st20{opacity:0.15;fill:#601D15;stroke:#2E0700;stroke-miterlimit:10;}
	.st21{opacity:0.3;fill:#601D15;stroke:#2E0700;stroke-miterlimit:10;}
	.st22{fill:url(#SVGID_00000067224705325436695490000006628435576791406517_);}
	.st23{fill:url(#SVGID_00000163054853193703498350000001621959518011209629_);}
	.st24{fill:url(#SVGID_00000162313695704603468630000009495657450761085325_);}
	.st25{fill:url(#SVGID_00000086658939722740270120000006000742064234565778_);}
	.st26{fill:none;stroke:#2E0700;stroke-width:2;stroke-miterlimit:10;}
	.st27{fill:#F96262;}
</style>
<rect xmlns="http://www.w3.org/2000/svg" class="st0" width="1000" height="1000"/>
<path xmlns="http://www.w3.org/2000/svg" class="st1" d="M1244,318.3c-0.9,1.6-1.6,3.3-2,4.9c-1.9,9.1,15.3,20.3,16.9,24.5s11.8-4.1,14-2.9c2.1,1.2,5.3,9.7,11.1,12.3  c5.8,2.7,4.6,4.8,4.1,7.9s2.6,11.5,13.3,13.5c7.7,1.4,7.5,17.3,6.7,26c3.3-5.9,4.7-12.8,2.2-20.1c-3.9-11.5-6.5-11.5-12.8-12.5  c0,0-0.5-13-1.4-16.4c-0.9-3.4-1.2-5.8-6.6-3.5c0,0-1.6-0.3-2.8-2.1c-1.2-1.8-2.8-2.1-2.8-2.1s0.7-3.1-0.9-3.4  c-1.6-0.3-3.2-0.5-3.8-1.4c-0.6-0.9-1.8-10.8-8.1-7.8c-6.4,3-9,11.5-14,8.3c-5-3.2-10.9-13.8-10.9-13.8S1245.7,324.7,1244,318.3z"/>
<path xmlns="http://www.w3.org/2000/svg" class="st2" d="M1306.7,388.7c0,0,2-19.8-14.6-7.1S1302.9,392.4,1306.7,388.7z"/>
<path xmlns="http://www.w3.org/2000/svg" class="st2" d="M1275.9,352.7c0,0,0.2-14.4-10.4-6.1C1254.8,355,1273.5,355.2,1275.9,352.7z"/>
<path xmlns="http://www.w3.org/2000/svg" class="st2" d="M1266.8,349.4c0,0,3.5-6.8,6.4-0.4S1267.3,351.1,1266.8,349.4z"/>
<g xmlns="http://www.w3.org/2000/svg">
	<linearGradient id="SVGID_1_" gradientUnits="userSpaceOnUse" x1="496.339" y1="823.6542" x2="496.339" y2="778.3673">
		<stop offset="0" style="stop-color:#FFFFFF"/>
		<stop offset="0.9434" style="stop-color:#C9C9C9"/>
	</linearGradient>
	<polyline class="st3" points="909.1,820 909.1,680.8 85.5,680.8 83.6,682.7 83.6,820  "/>
	<polygon class="st4" points="181.5,578.3 801.5,578.3 932,680.8 932,707.4 68,707.4 68,682.7  "/>
	<rect x="68" y="683" class="st5" width="864" height="24"/>
	<g>
		<g class="st6">
			<path class="st7" d="M559.3,607.5c0,0-27.7,93.6-29.2,122.4c-1.4,28.8,10.1,24.5,10.1,41.8c0,17.3,2.9,50.4,2.9,50.4l4.3,15.9     l57.7-1.4c0,0-4.3-57.7-4.3-66.3c0-8.6,0-11.5,0-15.9s11.5-23.1,13-41.8c1.4-18.7,1.4-18.7,1.4-18.7s14.4,36,21.6,40.4     s10.1,23.1,10.1,23.1s1.4,2.9,1.4,15.9c0,13,2.9,59.1,2.9,59.1h59.1c0,0-4.3-72.1-4.3-95.1c0-23.1,0-11.5,0-23.1     c0-11.5-8.6-56.2-17.3-72.1c-8.6-15.9-8.6-15.9-8.6-15.9L559.3,607.5z"/>
			<path class="st8" d="M530.1,729.9c-1.4,28.8,10.1,24.5,10.1,41.8c0,17.3,2.9,50.4,2.9,50.4l1.7,6.3c1-8.1,4-34.6,4-39.5     c0-5.8,0-30.3-2.9-40.4s10.1-11.5,5.8-21.6c-4.3-10.1,7.5-119.6,7.5-119.6S531.5,701.1,530.1,729.9z"/>
			<g>
				<path class="st9" d="M682.5,738.9c0.5-4.3,3.1-7.4,6-6.9c5.7,0.9,14.1,5.1,5.1,22.7C683.5,774.4,681.1,751.8,682.5,738.9z"/>
				<path class="st9" d="M680.1,726.3c0.5-4.2,3.1-7.2,5.9-6.8c7.2,1,20.4,6,8.5,28.9C681.6,773.5,678.2,741.9,680.1,726.3z"/>
				<path class="st9" d="M677,737.7c0,0-3.2,33.3,8,25c11.2-8.3,19.3-14.8,14.6-35.5C694.8,706.5,676.1,707.7,677,737.7z"/>
				<path class="st9" d="M671.9,737c0,0.5,0,1-0.1,1.5c-0.6,5.1-3.7,36,12,27.2c17.1-9.6,29.5-17.1,22.5-40.3      C699.3,702.4,671.3,704,671.9,737z"/>
				<path class="st10" d="M684.2,750.1c-0.3-6.9,4.9-11.8,8.6-7.6c1.8,2.1,2.4,5.7-1,12.2C686.7,764.5,684.5,757.5,684.2,750.1z"/>
			</g>
			<g>
				<path class="st9" d="M576.2,744.6c1.2-3,4.1-4.6,6.4-3.6c4.7,2,11.2,6.9,0.1,17.4C570.3,770.2,572.6,753.5,576.2,744.6z"/>
				<path class="st9" d="M576.5,735c1.2-2.9,4-4.5,6.4-3.5c6,2.4,16.4,8.9,1.9,22.6C568.9,769.1,572,745.7,576.5,735z"/>
				<path class="st9" d="M571.7,742.5c0,0-9,23.1,2.2,19.7c11.2-3.4,19.4-6.2,19.3-22.1S576.6,720.8,571.7,742.5z"/>
				<path class="st9" d="M567.4,740.7c-0.1,0.4-0.2,0.7-0.4,1.1c-1.5,3.5-10,25,5.1,22.2c16.5-3,28.6-5.6,27-23.8      C597.6,722.2,573.2,717.1,567.4,740.7z"/>
				<path class="st10" d="M575.5,753c1-5,6.5-7.3,8.8-3.5c1.1,1.9,0.9,4.6-3.2,8.5C575,763.8,574.4,758.4,575.5,753z"/>
			</g>
			<g class="st11">
				<path class="st12" d="M659.8,742.9c-1.4-11.5-7.2-4.3-14.4-18.7c-7.2-14.4-30.3-30.3-30.3-30.3s14.4,36,21.6,40.4      s10.1,23.1,10.1,23.1s1.4,2.9,1.4,15.9c0,13,2.9,59.1,2.9,59.1l10.1-57.7C661.3,774.6,661.3,754.4,659.8,742.9z"/>
			</g>
			
				<linearGradient id="SVGID_00000129921731971157037010000001347709161883904135_" gradientUnits="userSpaceOnUse" x1="576.8436" y1="851.5634" x2="575.9292" y2="837.8484">
				<stop offset="0" style="stop-color:#FFFFFF"/>
				<stop offset="0.5562" style="stop-color:#3D82A8"/>
			</linearGradient>
			<polygon style="fill:url(#SVGID_00000129921731971157037010000001347709161883904135_);" points="546.6,835.8 550.7,858.3      605.4,855.4 605,836.1    "/>
			
				<linearGradient id="SVGID_00000080196043170362896600000004607160005744900028_" gradientUnits="userSpaceOnUse" x1="682.0619" y1="846.3937" x2="681.1476" y2="832.6787">
				<stop offset="0" style="stop-color:#FFFFFF"/>
				<stop offset="0.5562" style="stop-color:#3D82A8"/>
			</linearGradient>
			<polygon style="fill:url(#SVGID_00000080196043170362896600000004607160005744900028_);" points="651.8,830.6 655.9,853.1      710.7,850.3 710.2,830.9    "/>
			<g>
				<path class="st15" d="M696.3,559.6c0,0-126.3-1.8-141.7,43.2c-2.8,8.3,31.8,17.2,37.2,35.8c9.6,33.2,53.8,30,54.2,40.1      c0.4,10.1,62.3,1.3,62.3,1.3l7.8,16.5c16.5-6.1,38.9-1.4,44.3-3.2c10-3.3,29-5,33-12.4c4-7.4,11.5-18.5,11.3-24.2      c-0.2-5.8,5.5-7.4,4.8-24.7c-0.5-13.9-1.7-17.9-2.5-26.6c-0.2-2.4,0.9-3.7,0-7.3c-0.5-2-1.8-6.4-7.7-18.9      c-6.9-14.9-39.6-49.3-75.6-47.9c-5.3,0.2-38.1,18.3-43.3,18.4L696.3,559.6z"/>
				<path class="st8" d="M617.6,621.6c-1.7-32.9,10.8-29.4,20.9-29.8s10.1-0.4,12.7-7.7c2.6-7.3,8.6-0.3,18.7-0.7      c10.1-0.4,2,14.3,8.4,31.4c6.4,17.1,15,15.3,14.7,8.1c-0.3-7.2,2.1-20.3,1-29.1c-1.1-8.8,24.2-0.2,29.3-16.2      s33.7-14.9,33.7-14.9c-6.8-1.3-19.8,10.4-45.6,5.7l-14.6-8.2c0,0-129.1,3.7-142.1,42.7c-2.8,8.3,33.2,14,37.2,35.8      c2.7,14.8,8.6,0.3,11.2,13C610.9,646.6,618.4,637.7,617.6,621.6z"/>
				<g>
					<path class="st9" d="M718.9,653.1c1.5,2.9,0.9,6.1-1.4,7.2c-4.5,2.3-12.4,4.1-13.4-11.1C703,632.1,714.3,644.6,718.9,653.1z"/>
					<path class="st9" d="M726,659.5c1.4,2.8,0.8,6-1.4,7.2c-5.7,3.1-17.4,6.8-18.5-13.1C704.8,631.7,720.7,649.1,726,659.5z"/>
					<path class="st9" d="M723.4,651c0,0-11.9-21.8-16.5-11c-4.6,10.7-7.7,18.9,4.6,29C723.8,679,736.8,668.7,723.4,651z"/>
					<path class="st9" d="M727.4,648.8c-0.2-0.3-0.4-0.6-0.6-1c-1.7-3.4-12.7-23.7-20.3-10.4c-8.3,14.5-14.1,25.5,0.9,35.9       C722.3,683.8,741.9,668.5,727.4,648.8z"/>
					<path class="st10" d="M712.9,647.2c3.2,4,1.5,9.7-3,9c-2.2-0.3-4.2-2.3-4.5-7.9C704.9,639.8,709.4,642.9,712.9,647.2z"/>
				</g>
				<g>
					<path class="st9" d="M721.6,609.6c2.2,2.4,2.5,5.6,0.5,7.4c-3.8,3.4-10.9,7.2-15.8-7.2C700.9,593.5,715.1,602.6,721.6,609.6z"/>
					<path class="st9" d="M730.2,614c2.1,2.4,2.4,5.5,0.5,7.3c-4.7,4.4-15,11.1-21.3-7.9C702.5,592.6,722.4,605.3,730.2,614z"/>
					<path class="st9" d="M725.4,606.5c0,0-17.2-17.9-18.8-6.4s-2.6,20.2,12,26.8C733.1,633.4,743,620.1,725.4,606.5z"/>
					<path class="st9" d="M728.8,603.3c-0.3-0.2-0.6-0.5-0.8-0.8c-2.5-2.8-18.4-19.6-22.3-4.7c-4.3,16.2-7,28.3,10.2,34.5       C732.9,638.4,747.9,618.5,728.8,603.3z"/>
					<path class="st10" d="M714.3,605.5c4.1,3.1,3.9,9-0.5,9.5c-2.2,0.2-4.6-1.1-6.4-6.5C704.7,600.5,709.9,602.2,714.3,605.5z"/>
				</g>
				<path class="st16" d="M743.5,640.4c0,0-19.8,10.9-27.2,5.4c-7.4-5.5-7.7-12.7-7.7-12.7S740.3,631.9,743.5,640.4z"/>
				<path class="st8" d="M711.4,545.4c8.5-0.3,13.7-0.6,51.5,3.6c12.4,1.4,16.4,14.5,26.2,16.6c-14.6-10.5-23.3-34-64.9-32.9      c-5.3,0.1-38.5,16.9-43.8,17l14.5,0.4C696.8,549.7,710.1,545.4,711.4,545.4z"/>
				<path class="st8" d="M773,674.4c0,0-41.7,3.1-41.5,8.8s0.2,5.8,0.2,5.8s-10.4-6.8-10.1,0.4c0.3,7.2-6.9,1.6-6.9,1.6l-5.5-13.3      c-5.5,2.4,7.9,6.1,32-5C753,667.4,773,674.4,773,674.4z"/>
				<g>
					<path class="st17" d="M832,681.5c0,0,2.8,7.1-5.3,5.7c-8.1-1.4-14.6-14.7-14.6-14.7l3.4-5.7L832,681.5z"/>
					<path class="st17" d="M836.3,611.4c0,0-21.7-0.3-34.7-8.4c-13-8.1-36.8-0.3-42.3,14.3c-5.5,14.6,34.6,35.3,39.3,38.1       C803.3,658.2,836.3,611.4,836.3,611.4z"/>
					<path class="st17" d="M836.7,687.1c0.4,0.2,3.5,2.2,3.9,2.4c5.6,3,39.5,13.8,52.6-17.8c17.5-42.5-20.4-54.2-20.4-54.2l-8.3-3.4       c-0.2-0.1-0.4-0.2-0.6-0.3c0,0,6.9-4.8-8-6.8c-14.9-2.1-12.3-0.5-14.9-2.1c-1.8-1.1-5.1,0.5-5.7,3c-9.6-0.5-19.6,0.6-26.7,5.7       c-18.4,13.1-29,9-18.9,28.9s8.9,19.1,27.6,32.5C830.8,684.8,835.5,686.6,836.7,687.1z"/>
					<g class="st18">
						<path class="st19" d="M789.6,642.5c10.2,19.9,8.9,19.1,27.6,32.5c0,0-20.9-22.4-29.2-35.8C788.5,640.2,789,641.3,789.6,642.5z        "/>
						<path class="st19" d="M840.6,689.6c4.4,2.3,25.8,9.4,41.3-2.5c-14.7,2.1-35.5,3-41.4-7.5c-9.4-16.7,2.1-14.9-9.4-16.7        c-11.5-1.8-13.9,12.1-13.9,12.1c13.6,9.8,18.3,11.7,19.5,12.1C837.1,687.3,840.2,689.3,840.6,689.6z"/>
					</g>
					<path class="st20" d="M845,646.3c0,0,16-17.1,6.3-15.9c-9.7,1.2-11.2,9.3-18,8.6c-6.8-0.6-6.6,4.9-11.8,1.6       c-5.2-3.2-9.6-7.8-9.6-7.8C811.4,645.2,838.7,662.2,845,646.3z"/>
					<g>
						<path class="st10" d="M829.2,633.1c0,0-12.7,1.3-3.5-9.7C834.8,612.4,831.8,630.6,829.2,633.1z"/>
						<path class="st10" d="M829.5,638.4c0,0-16.2,1.1-4.9-12.3C836,612.7,832.7,635.4,829.5,638.4z"/>
						<path class="st10" d="M833.8,630.4c0,0,4.4-14.4-2.6-10.6c-7,3.8-12.2,6.8-11.1,15.6C821.2,644.2,831.9,643.3,833.8,630.4z"/>
						<path class="st10" d="M836.7,630.2c0,0,5.9-16.3-4.6-11.8c-10.5,4.5-18.1,8-15.9,17.8C818.3,646.1,834.6,644.8,836.7,630.2z"/>
						<path class="st10" d="M829.2,629.6c0,0-8.3,0.6-2.5-6.3C832.5,616.5,830.8,628.1,829.2,629.6z"/>
					</g>
					<g>
						<path class="st10" d="M815.4,661.8c0,0-12.7-2.6-3.1-10C821.9,644.4,818.1,660.3,815.4,661.8z"/>
						<path class="st10" d="M815.4,666.8c0,0-16.1-3.8-4.3-12.8C823,645,818.8,665,815.4,666.8z"/>
						<path class="st10" d="M820.1,660.6c0,0,5.1-12-2.1-10.6c-7.1,1.4-12.4,2.6-11.7,11.1C806.9,669.6,817.6,672,820.1,660.6z"/>
						<path class="st10" d="M823,661.4c0,0,6.6-13.2-4-12.2c-10.6,1-18.4,2-16.7,11.7C804,670.6,820.2,674.1,823,661.4z"/>
						<path class="st10" d="M815.6,658.6c0,0-8.2-1.9-2.2-6.5S817.2,657.7,815.6,658.6z"/>
					</g>
					<g>
						<path class="st10" d="M865.2,679.8c0,0,6,10.5-13.1,3.3C833,675.8,860.8,677.7,865.2,679.8z"/>
						<path class="st10" d="M873,679.3c0,0,6.8,13.4-16.6,4.5C833,674.9,867.6,676.8,873,679.3z"/>
						<path class="st10" d="M859.7,676.1c0,0-22.7-3.2-14.8,2.5c7.8,5.7,13.9,9.9,26.6,8.7C884.2,686.1,879.4,677.2,859.7,676.1z"/>
						<path class="st10" d="M858.6,673.7c0,0-25.9-4.3-15.9,4.2c10,8.5,17.6,14.8,31.4,12.6C887.9,688.4,880.7,674.9,858.6,673.7z"/>
						<path class="st10" d="M860.1,679.9c0,0,3.5,6.9-8.5,2.3S857.3,678.6,860.1,679.9z"/>
					</g>
					<path class="st21" d="M862.6,626.6c3.1,3.7-3.4-0.3,5.7,5.3c9.1,5.7,15.7,0.8,5.5,14.3c-10.2,13.5-10.5,16.9-12.5,22.9       c-1.9,6,1.7,15.2-9.5,22.8c-0.4,0.3-0.8,0.6-1.2,0.8c12.7,2.5,33,1.9,42.5-21c17.5-42.5-20.4-54.2-20.4-54.2l-8.3-3.4       c-0.2-0.1-0.4-0.2-0.6-0.3C857.4,623.4,859.5,622.9,862.6,626.6z"/>
				</g>
			</g>
			<path class="st17" d="M693.6,681.3c0,0,36.6-6.4,50.3-0.9c13.7,5.5,23.5,4.5,23.5,4.5l9.3,2.3c0,0,11.2-1.3,3,4.2     s-11.9,11.9-22.9,11.9s-50.3-13.1-54.9-14.6C697.2,687.1,693.6,681.3,693.6,681.3z"/>
			<path class="st17" d="M684.3,552.6c0,0-30.8,22.9-33.2,31.5c-2.4,8.5-2.4,13.1,0.3,15.8c2.7,2.7,83.3,80.5,92.4,82.4     c9.2,1.8,1.8,5.5,13.7,5.5c11.9,0,21.1,5.5,32,1.8c11-3.7,18.2-4.3,11-9.2c-11-7.3-16.5-9.2-31.1-9.2c-14.6,0-18.3-6.4-18.3-6.4     s-32-43-61.3-74.1l26.5-18.3L684.3,552.6z"/>
		</g>
		<g class="st6">
			<path class="st7" d="M458.5,594.7c0,0,27.7,93.6,29.2,122.4c1.4,28.8-10.1,24.5-10.1,41.8c0,17.3-2.9,50.4-2.9,50.4l-4.3,15.9     l-57.7-1.4c0,0,4.3-57.7,4.3-66.3c0-8.6,0-11.5,0-15.9s-11.5-23.1-13-41.8c-1.4-18.7-1.4-18.7-1.4-18.7s-14.4,36-21.6,40.4     c-7.2,4.3-10.1,23.1-10.1,23.1s-1.4,2.9-1.4,15.9c0,13-2.9,59.1-2.9,59.1h-59.1c0,0,4.3-72.1,4.3-95.1c0-23.1,0-11.5,0-23.1     s8.6-56.2,17.3-72.1s8.6-15.9,8.6-15.9L458.5,594.7z"/>
			<path class="st8" d="M487.6,717.1c1.4,28.8-10.1,24.5-10.1,41.8c0,17.3-2.9,50.4-2.9,50.4l-1.7,6.3c-1-8.1-4-34.6-4-39.5     c0-5.8,0-30.3,2.9-40.4c2.9-10.1-10.1-11.5-5.8-21.6c4.3-10.1-7.5-119.6-7.5-119.6S486.2,688.3,487.6,717.1z"/>
			<g>
				<path class="st9" d="M335.2,726.1c-0.5-4.3-3.1-7.4-6-6.9c-5.7,0.9-14.1,5.1-5.1,22.7C334.2,761.6,336.6,739,335.2,726.1z"/>
				<path class="st9" d="M337.6,713.5c-0.5-4.2-3.1-7.2-5.9-6.8c-7.2,1-20.4,6-8.5,28.9C336.1,760.7,339.5,729.1,337.6,713.5z"/>
				<path class="st9" d="M340.7,724.9c0,0,3.2,33.3-8,25s-19.3-14.8-14.6-35.5C322.9,693.7,341.6,694.9,340.7,724.9z"/>
				<path class="st9" d="M345.9,724.1c0,0.5,0,1,0.1,1.5c0.6,5.1,3.7,36-12,27.2c-17.1-9.6-29.5-17.1-22.5-40.3      C318.5,689.6,346.4,691.2,345.9,724.1z"/>
				<path class="st10" d="M333.6,737.3c0.3-6.9-4.9-11.8-8.6-7.6c-1.8,2.1-2.4,5.7,1,12.2C331,751.7,333.2,744.7,333.6,737.3z"/>
			</g>
			<g>
				<path class="st9" d="M441.5,731.8c-1.2-3-4.1-4.6-6.4-3.6c-4.7,2-11.2,6.9-0.1,17.4C447.4,757.4,445.1,740.7,441.5,731.8z"/>
				<path class="st9" d="M441.2,722.2c-1.2-2.9-4-4.5-6.4-3.5c-6,2.4-16.4,8.9-1.9,22.6C448.9,756.3,445.7,732.9,441.2,722.2z"/>
				<path class="st9" d="M446,729.7c0,0,9,23.1-2.2,19.7s-19.4-6.2-19.3-22.1C424.8,711.3,441.1,708,446,729.7z"/>
				<path class="st9" d="M450.3,727.9c0.1,0.4,0.2,0.7,0.4,1.1c1.5,3.5,10,25-5.1,22.2c-16.5-3-28.6-5.6-27-23.8      C420.2,709.4,444.5,704.2,450.3,727.9z"/>
				<path class="st10" d="M442.2,740.2c-1-5-6.5-7.3-8.8-3.5c-1.1,1.9-0.9,4.6,3.2,8.5C442.7,751,443.3,745.5,442.2,740.2z"/>
			</g>
			<g class="st11">
				<path class="st12" d="M357.9,730.1c1.4-11.5,7.2-4.3,14.4-18.7c7.2-14.4,30.3-30.3,30.3-30.3s-14.4,36-21.6,40.4      c-7.2,4.3-10.1,23.1-10.1,23.1s-1.4,2.9-1.4,15.9c0,13-2.9,59.1-2.9,59.1l-10.1-57.7C356.5,761.8,356.5,741.6,357.9,730.1z"/>
			</g>
			
				<linearGradient id="SVGID_00000036930100153068457810000014083381973274007697_" gradientUnits="userSpaceOnUse" x1="0.4847" y1="838.7499" x2="-0.4297" y2="825.0349" gradientTransform="matrix(-1 0 0 1 441.3654 0)">
				<stop offset="0" style="stop-color:#FFFFFF"/>
				<stop offset="0.5562" style="stop-color:#3D82A8"/>
			</linearGradient>
			<polygon style="fill:url(#SVGID_00000036930100153068457810000014083381973274007697_);" points="471.1,823 467.1,845.5      412.3,842.6 412.7,823.3    "/>
			
				<linearGradient id="SVGID_00000137120209333244289950000006707159924077130175_" gradientUnits="userSpaceOnUse" x1="105.703" y1="833.5801" x2="104.7887" y2="819.8652" gradientTransform="matrix(-1 0 0 1 441.3654 0)">
				<stop offset="0" style="stop-color:#FFFFFF"/>
				<stop offset="0.5562" style="stop-color:#3D82A8"/>
			</linearGradient>
			<polygon style="fill:url(#SVGID_00000137120209333244289950000006707159924077130175_);" points="365.9,817.8 361.8,840.3      307.1,837.4 307.5,818.1    "/>
			<g>
				<path class="st15" d="M321.4,546.8c0,0,126.3-1.8,141.7,43.2c2.8,8.3-31.8,17.2-37.2,35.8c-9.6,33.2-53.8,30-54.2,40.1      c-0.4,10.1-62.3,1.3-62.3,1.3l-7.8,16.5c-16.5-6.1-38.9-1.4-44.3-3.2c-10-3.3-29-5-33-12.4c-4-7.4-11.5-18.5-11.3-24.2      c0.2-5.8-5.5-7.4-4.8-24.7c0.5-13.9,1.7-17.9,2.5-26.6c0.2-2.4-0.9-3.7,0-7.3c0.5-2,1.8-6.4,7.7-18.9      c6.9-14.9,39.6-49.3,75.6-47.9c5.3,0.2,38.1,18.3,43.3,18.4L321.4,546.8z"/>
				<path class="st8" d="M400.2,608.8c1.7-32.9-10.8-29.4-20.9-29.8c-10.1-0.4-10.1-0.4-12.7-7.7c-2.6-7.3-8.6-0.3-18.7-0.7      s-2,14.3-8.4,31.4s-15,15.3-14.7,8.1s-2.1-20.3-1-29.1c1.1-8.8-24.2-0.2-29.3-16.2c-5.1-16.1-33.7-14.9-33.7-14.9      c6.8-1.3,19.8,10.4,45.6,5.7l14.6-8.2c0,0,129.1,3.7,142.1,42.7c2.8,8.3-33.2,14-37.2,35.8c-2.7,14.8-8.6,0.3-11.2,13      C406.8,633.8,399.3,624.9,400.2,608.8z"/>
				<g>
					<path class="st9" d="M298.9,640.3c-1.5,2.9-0.9,6.1,1.4,7.2c4.5,2.3,12.4,4.1,13.4-11.1C314.7,619.3,303.4,631.8,298.9,640.3z"/>
					<path class="st9" d="M291.7,646.7c-1.4,2.8-0.8,6,1.4,7.2c5.7,3.1,17.4,6.8,18.5-13.1C313,618.9,297,636.3,291.7,646.7z"/>
					<path class="st9" d="M294.4,638.2c0,0,11.9-21.8,16.5-11c4.6,10.7,7.7,18.9-4.6,29C294,666.2,280.9,655.9,294.4,638.2z"/>
					<path class="st9" d="M290.3,636c0.2-0.3,0.4-0.6,0.6-1c1.7-3.4,12.7-23.7,20.3-10.4c8.3,14.5,14.1,25.5-0.9,35.9       C295.5,671,275.9,655.7,290.3,636z"/>
					<path class="st10" d="M304.9,634.4c-3.2,4-1.5,9.7,3,9c2.2-0.3,4.2-2.3,4.5-7.9C312.8,627,308.3,630.1,304.9,634.4z"/>
				</g>
				<g>
					<path class="st9" d="M296.1,596.8c-2.2,2.4-2.5,5.6-0.5,7.4c3.8,3.4,10.9,7.2,15.8-7.2C316.9,580.7,302.7,589.8,296.1,596.8z"/>
					<path class="st9" d="M287.5,601.2c-2.1,2.4-2.4,5.5-0.5,7.3c4.7,4.4,15,11.1,21.3-7.9C315.3,579.8,295.4,592.5,287.5,601.2z"/>
					<path class="st9" d="M292.3,593.6c0,0,17.2-17.9,18.8-6.4c1.7,11.6,2.6,20.2-12,26.8C284.6,620.6,274.7,607.2,292.3,593.6z"/>
					<path class="st9" d="M288.9,590.5c0.3-0.2,0.6-0.5,0.8-0.8c2.5-2.8,18.4-19.6,22.3-4.7c4.3,16.2,7,28.3-10.2,34.5       C284.8,625.6,269.9,605.7,288.9,590.5z"/>
					<path class="st10" d="M303.4,592.7c-4.1,3.1-3.9,9,0.5,9.5c2.2,0.2,4.6-1.1,6.4-6.5C313,587.6,307.8,589.4,303.4,592.7z"/>
				</g>
				<path class="st16" d="M274.2,627.6c0,0,19.8,10.9,27.2,5.4c7.4-5.5,7.7-12.7,7.7-12.7S277.4,619,274.2,627.6z"/>
				<path class="st8" d="M306.3,532.6c-8.5-0.3-13.7-0.6-51.5,3.6c-12.4,1.4-16.4,14.5-26.2,16.6c14.6-10.5,23.3-34,64.9-32.9      c5.3,0.1,38.5,16.9,43.8,17l-14.5,0.4C321,536.9,307.6,532.6,306.3,532.6z"/>
				<path class="st8" d="M244.8,661.6c0,0,41.7,3.1,41.5,8.8c-0.2,5.8-0.2,5.8-0.2,5.8s10.4-6.8,10.1,0.4s6.9,1.6,6.9,1.6l5.5-13.3      c5.5,2.4-7.9,6.1-32-5C264.8,654.6,244.8,661.6,244.8,661.6z"/>
				<g>
					<path class="st17" d="M185.7,668.7c0,0-2.8,7.1,5.3,5.7c8.1-1.4,14.6-14.7,14.6-14.7l-3.4-5.7L185.7,668.7z"/>
					<path class="st17" d="M181.5,598.6c0,0,21.7-0.3,34.7-8.4c13-8.1,36.8-0.3,42.3,14.3c5.5,14.6-34.6,35.3-39.3,38.1       C214.5,645.4,181.5,598.6,181.5,598.6z"/>
					<path class="st17" d="M181,674.3c-0.4,0.2-3.5,2.2-3.9,2.4c-5.6,3-39.5,13.8-52.6-17.8C107,616.4,145,604.8,145,604.8l8.3-3.4       c0.2-0.1,0.4-0.2,0.6-0.3c0,0-6.9-4.8,8-6.8c14.9-2.1,12.3-0.5,14.9-2.1c1.8-1.1,5.1,0.5,5.7,3c9.6-0.5,19.6,0.6,26.7,5.7       c18.4,13.1,29,9,18.9,28.9c-10.2,19.9-8.9,19.1-27.6,32.5C186.9,672,182.2,673.8,181,674.3z"/>
					<g class="st18">
						<path class="st19" d="M228.1,629.7c-10.2,19.9-8.9,19.1-27.6,32.5c0,0,20.9-22.4,29.2-35.8        C229.3,627.4,228.7,628.5,228.1,629.7z"/>
						<path class="st19" d="M177.1,676.7c-4.4,2.3-25.8,9.4-41.3-2.5c14.7,2.1,35.5,3,41.4-7.5c9.4-16.7-2.1-14.9,9.4-16.7        c11.5-1.8,13.9,12.1,13.9,12.1c-13.6,9.8-18.3,11.7-19.5,12.1C180.6,674.5,177.5,676.5,177.1,676.7z"/>
					</g>
					<path class="st20" d="M172.8,633.5c0,0-16-17.1-6.3-15.9c9.7,1.2,11.2,9.3,18,8.6c6.8-0.6,6.6,4.9,11.8,1.6s9.6-7.8,9.6-7.8       C206.4,632.4,179.1,649.4,172.8,633.5z"/>
					<g>
						<path class="st10" d="M188.5,620.3c0,0,12.7,1.3,3.5-9.7C182.9,599.6,186,617.8,188.5,620.3z"/>
						<path class="st10" d="M188.2,625.6c0,0,16.2,1.1,4.9-12.3C181.8,599.9,185,622.6,188.2,625.6z"/>
						<path class="st10" d="M184,617.5c0,0-4.4-14.4,2.6-10.6c7,3.8,12.2,6.8,11.1,15.6C196.5,631.4,185.8,630.5,184,617.5z"/>
						<path class="st10" d="M181,617.4c0,0-5.9-16.3,4.6-11.8s18.1,8,15.9,17.8C199.4,633.3,183.1,631.9,181,617.4z"/>
						<path class="st10" d="M188.5,616.8c0,0,8.3,0.6,2.5-6.3S186.9,615.3,188.5,616.8z"/>
					</g>
					<g>
						<path class="st10" d="M202.3,648.9c0,0,12.7-2.6,3.1-10C195.8,631.6,199.7,647.4,202.3,648.9z"/>
						<path class="st10" d="M202.3,654c0,0,16.1-3.8,4.3-12.8C194.7,632.2,199,652.2,202.3,654z"/>
						<path class="st10" d="M197.7,647.8c0,0-5.1-12,2.1-10.6c7.1,1.4,12.4,2.6,11.7,11.1S200.1,659.2,197.7,647.8z"/>
						<path class="st10" d="M194.8,648.6c0,0-6.6-13.2,4-12.2c10.6,1,18.4,2,16.7,11.7C213.7,657.7,197.5,661.3,194.8,648.6z"/>
						<path class="st10" d="M202.2,645.8c0,0,8.2-1.9,2.2-6.5C198.3,634.6,200.5,644.8,202.2,645.8z"/>
					</g>
					<g>
						<path class="st10" d="M152.5,667c0,0-6,10.5,13.1,3.3C184.7,663,157,664.9,152.5,667z"/>
						<path class="st10" d="M144.7,666.5c0,0-6.8,13.4,16.6,4.5S150.2,664,144.7,666.5z"/>
						<path class="st10" d="M158,663.3c0,0,22.7-3.2,14.8,2.5c-7.8,5.7-13.9,9.9-26.6,8.7S138.4,664.4,158,663.3z"/>
						<path class="st10" d="M159.1,660.9c0,0,25.9-4.3,15.9,4.2s-17.6,14.8-31.4,12.6C129.8,675.5,137.1,662.1,159.1,660.9z"/>
						<path class="st10" d="M157.6,667.1c0,0-3.5,6.9,8.5,2.3S160.4,665.8,157.6,667.1z"/>
					</g>
					<path class="st21" d="M155.1,613.8c-3.1,3.7,3.4-0.3-5.7,5.3c-9.1,5.7-15.7,0.8-5.5,14.3c10.2,13.5,10.5,16.9,12.5,22.9       c1.9,6-1.7,15.2,9.5,22.8c0.4,0.3,0.8,0.6,1.2,0.8c-12.7,2.5-33,1.9-42.5-21C107,616.4,145,604.8,145,604.8l8.3-3.4       c0.2-0.1,0.4-0.2,0.6-0.3C160.3,610.5,158.2,610.1,155.1,613.8z"/>
				</g>
			</g>
			<path class="st17" d="M324.1,668.5c0,0-36.6-6.4-50.3-0.9s-23.5,4.5-23.5,4.5l-9.3,2.3c0,0-11.2-1.3-3,4.2     c8.2,5.5,11.9,11.9,22.9,11.9c11,0,50.3-13.1,54.9-14.6C320.5,674.3,324.1,668.5,324.1,668.5z"/>
			<path class="st17" d="M333.4,539.8c0,0,30.8,22.9,33.2,31.5c2.4,8.5,2.4,13.1-0.3,15.8s-83.3,80.5-92.4,82.4     c-9.2,1.8-1.8,5.5-13.7,5.5c-11.9,0-21.1,5.5-32,1.8c-11-3.7-18.2-4.3-11-9.2c11-7.3,16.5-9.2,31.1-9.2s18.3-6.4,18.3-6.4     s32-43,61.3-74.1l-26.5-18.3L333.4,539.8z"/>
		</g>
		<path class="st17" d="M519.5,405c0,0,4.3-5.8,7.2,1.4c2.9,7.2-4.5,19-4.5,19l-6.2,0.2L519.5,405z"/>
		<path class="st7" d="M441.2,651.4c0,0-24.1,70.7-25.5,99.6s10.1,24.5,10.1,41.8c0,17.3,2.9,50.4,2.9,50.4l4.3,15.9l57.7-1.4    c0,0-4.3-57.7-4.3-66.3s0-11.5,0-15.9c0-4.3,11.5-23.1,13-41.8c1.4-18.7,1.4-18.7,1.4-18.7s14.4,36,21.6,40.4s10.1,23.1,10.1,23.1    s1.4,2.9,1.4,15.9s2.9,59.1,2.9,59.1h59.1c0,0-4.3-72.1-4.3-95.1s0-11.5,0-23.1c0-11.5-8.6-56.2-17.3-72.1    c-8.6-15.9-8.6-15.9-8.6-15.9L441.2,651.4z"/>
		<path class="st8" d="M415.7,751c-1.4,28.8,10.1,24.5,10.1,41.8c0,17.3,2.9,50.4,2.9,50.4l1.7,6.3c1-8.1,4-34.6,4-39.5    c0-5.8,0-30.3-2.9-40.4c-2.9-10.1,10.1-11.5,5.8-21.6c-4.3-10.1,3.9-96.7,3.9-96.7S417.1,722.1,415.7,751z"/>
		<path class="st15" d="M433,563.6c0,0,5.8,98,14.4,99.5c8.6,1.4,0,7.2,34.6,7.2s67.7-10.1,77.8-10.1s-2.9-98-2.9-98l33.5-12    c-5.4-16.7-11.8-34.4-13.3-39.9c-2.9-10.1-8.6-28.8-15.9-33.2c-7.2-4.3-18-12.3-23.8-12.3s-7.2-5.8-24.5-5.8    c-17.3,0-31.7-1.4-40.4,0c0,0-13,8.6-30.3,10.1c-16.4,1.4-33.9,41.1-33.9,77.1c0,5.3-0.1,10.6-0.2,15.9L433,563.6z"/>
		<path class="st17" d="M585.1,551.3c0,0,7.9,39.6,7.9,46.8s-54.1,84.3-54.1,93c0,8.6,1.4,7.2-2.9,18.7    c-2.5,6.7-10.8,12.3-10.8,12.3s0.7,5-9.4,5c-10.1,0-10.8-0.7-10.8-6.5s5.8-20.2,5.8-20.2s-8.6,11.5-8.6,2.9    c0-8.6,9.4-15.1,12.3-18c2.9-2.9,11.5-10.1,11.5-10.1s26.3-69,32.3-80.6c2.3-4.5-1.3-32.6-1.3-32.6L585.1,551.3z"/>
		<path class="st16" d="M495.1,650.5c-33,0.4-29-12-29-22c0-10.1,0-10.1-7.2-13s0-8.6,0-18.7c0-10.1,14.4-1.4,31.7-7.2    c17.3-5.8,15.9-14.4,8.6-14.4s-20.2-2.9-29.1-2.1c-8.9,0.8-8.4,5-24.3-0.8s-4.3-63.4-4.3-63.4c-1.6,6.8-6.5,29-12.2,54.6l3.5,0.2    c0,0,5.8,98,14.4,99.5c8.6,1.4,0,7.2,34.6,7.2c15,0,29.7-1.9,42.4-4C519.9,658.1,511.3,650.3,495.1,650.5z"/>
		<path class="st17" d="M409.2,562.9c0,0,4.4,37.5,4.3,44.7c-0.1,7.2,40.4,74.2,40.3,82.9c-0.1,8.6-0.7,10.8,2.9,22.4    c2.1,6.8,9.3,12.3,9.3,12.3s4.4,5.1,13.2,5.2s9.4-0.6,9.5-6.4c0.1-5.8-4.8-20.2-4.8-20.2s7.4,11.6,7.5,3s-8-15.2-10.5-18.1    s-10-10.2-10-10.2s-24.9-67.8-30-79.5c-2-4.5-4.3-36-4.3-36H409.2z"/>
		<path class="st17" d="M461.3,436.5c0,0,10.6,17.5,10.6,31.9s18,29.5,32.4,26.7c14.4-2.9,11-45.2,10.9-50.4    S461.3,436.5,461.3,436.5z"/>
		<path class="st17" d="M521.6,398.6c-0.1-0.4,0-3.9,0-4.3c-0.4-5.9-8.6-38.4-40.4-33.2c-42.7,7.1-33.2,43.2-33.2,43.2l1.4,8.3    c0,0.2,0.1,0.4,0.1,0.6c0,0-7.2-3.2-1.5,9.8c5.8,13,5.8,10.1,5.8,13c0,2,3,3.8,5.2,3.1c4.3,7.9,10.2,15.3,17.9,18.5    c19.6,8.2,21.6,18.7,32.4,0.7s10.8-16.6,12.3-38.2C522.7,404.4,521.8,399.7,521.6,398.6z"/>
		<g class="st18">
			<path class="st19" d="M509.4,458.4c10.8-18,10.8-16.6,12.3-38.2c0,0-7.6,27.8-14.1,41.1C508.1,460.4,508.7,459.4,509.4,458.4z"/>
			<path class="st19" d="M521.6,394.2c-0.3-4.6-5.4-25.3-22.5-31.8c9,10.7,20,26.9,14.6,36.8c-8.6,15.9-13,5.8-8.6,15.9     c4.3,10.1,16.6,5,16.6,5c1-15.7,0.2-20.4,0-21.6C521.6,398.1,521.7,394.6,521.6,394.2z"/>
		</g>
		<path class="st20" d="M484.9,412.2c0,0-21.6-4.3-15.9,2.9c5.8,7.2,13,4.3,15.9,10.1c2.9,5.8,7.2,2.9,7.2,8.6s-1.4,11.5-1.4,11.5    C500.7,439.6,500.7,409.4,484.9,412.2z"/>
		<g>
			<path class="st10" d="M482.2,431.4c0,0,7.3,9.5-6,7.6C462.9,437.2,478.9,430.6,482.2,431.4z"/>
			<path class="st10" d="M486.3,428.5c0,0,8.9,12.4-7.4,10S482.3,427.4,486.3,428.5z"/>
			<path class="st10" d="M477.7,429.1c0,0-13.7,3.6-7.2,7.4s11.5,6.4,18,1.1C495,432.3,489,424.2,477.7,429.1z"/>
			<path class="st10" d="M476.2,426.8c0,0-15.9,3.4-7.2,9.5c8.8,6.1,15.4,10.5,22.2,3.9C498,433.6,488.8,421.3,476.2,426.8z"/>
			<path class="st10" d="M479.4,433.1c0,0,4.6,6.3-3.8,5.1C467.3,437,477.4,432.6,479.4,433.1z"/>
		</g>
		<g>
			<path class="st10" d="M512,428.2c0,0,4.2,11.4-6.4,7.4C494.8,431.6,509.4,426.8,512,428.2z"/>
			<path class="st10" d="M515.9,425.6c0,0,5,14.8-8.1,9.8C494.8,430.4,512.8,423.9,515.9,425.6z"/>
			<path class="st10" d="M508.7,425c0,0-12.1,1.9-7.4,6.9c4.7,5,8.3,8.6,14.7,3.8C522.4,431,519,421.3,508.7,425z"/>
			<path class="st10" d="M507.9,422.3c0,0-13.9,1.3-7.8,9.3c6.1,8,10.7,13.7,17.6,7.5C524.6,432.9,519.4,418.2,507.9,422.3z"/>
			<path class="st10" d="M509.3,429.6c0,0,2.5,7.6-4.1,5C498.5,432.1,507.8,428.7,509.3,429.6z"/>
		</g>
		<g>
			<path class="st9" d="M530.6,550.5c2.9-1.4,6.1-0.7,7.2,1.7c2.2,4.6,3.6,12.6-11.6,13C509,565.5,522,554.7,530.6,550.5z"/>
			<path class="st9" d="M537.3,543.6c2.9-1.3,6-0.6,7.1,1.7c2.8,5.8,6.1,17.6-13.8,18C508.7,563.8,526.7,548.5,537.3,543.6z"/>
			<path class="st9" d="M528.7,545.9c0,0-22.2,11-11.7,16.1c10.6,5,18.6,8.5,29.1-3.4C556.7,546.6,546.9,533.2,528.7,545.9z"/>
			<path class="st9" d="M526.7,541.8c-0.3,0.2-0.6,0.4-1,0.6c-3.5,1.6-24.2,11.7-11.1,19.9c14.2,8.9,24.9,15.1,35.9,0.5     C561.4,548.3,546.9,528.1,526.7,541.8z"/>
			<path class="st10" d="M524.5,556.3c4.1-3,9.7-1.1,8.9,3.3c-0.4,2.2-2.4,4.1-8.1,4.2C516.8,564,520,559.5,524.5,556.3z"/>
		</g>
		<g>
			<path class="st9" d="M568.1,760c0.5-4.3,3.1-7.4,6-6.9c5.7,0.9,14.1,5.1,5.1,22.7C569.1,795.5,566.7,772.9,568.1,760z"/>
			<path class="st9" d="M565.7,747.4c0.5-4.2,3.1-7.2,5.9-6.8c7.2,1,20.4,6,8.5,28.9C567.2,794.6,563.8,763,565.7,747.4z"/>
			<path class="st9" d="M562.6,758.8c0,0-3.2,33.3,8,25c11.2-8.3,19.3-14.8,14.6-35.5C580.4,727.5,561.7,728.8,562.6,758.8z"/>
			<path class="st9" d="M557.4,758c0,0.5,0,1-0.1,1.5c-0.6,5.1-3.7,36,12,27.2c17.1-9.6,29.5-17.1,22.5-40.3     C584.9,723.4,556.9,725.1,557.4,758z"/>
			<path class="st10" d="M569.8,771.2c-0.3-6.9,4.9-11.8,8.6-7.6c1.8,2.1,2.4,5.7-1,12.2C572.3,785.5,570.1,778.6,569.8,771.2z"/>
		</g>
		<g>
			<path class="st9" d="M461.8,765.6c1.2-3,4.1-4.6,6.4-3.6c4.7,2,11.2,6.9,0.1,17.4C455.9,791.2,458.2,774.5,461.8,765.6z"/>
			<path class="st9" d="M462.1,756.1c1.2-2.9,4-4.5,6.4-3.5c6,2.4,16.4,8.9,1.9,22.6C454.5,790.2,457.6,766.8,462.1,756.1z"/>
			<path class="st9" d="M457.3,763.5c0,0-9,23.1,2.2,19.7c11.2-3.4,19.4-6.2,19.3-22.1C478.5,745.2,462.2,741.8,457.3,763.5z"/>
			<path class="st9" d="M453,761.8c-0.1,0.4-0.2,0.7-0.4,1.1c-1.5,3.5-10,25,5.1,22.2c16.5-3,28.6-5.6,27-23.8     C483.2,743.3,458.8,738.1,453,761.8z"/>
			<path class="st10" d="M461.1,774c1-5,6.5-7.3,8.8-3.5c1.1,1.9,0.9,4.6-3.2,8.5C460.6,784.9,460,779.4,461.1,774z"/>
		</g>
		<g>
			<path class="st9" d="M467,550.7c2.4-2.1,5.7-2.2,7.4-0.3c3.3,3.9,6.8,11.2-7.9,15.5C450.1,570.9,459.7,557,467,550.7z"/>
			<path class="st9" d="M471.6,542.4c2.4-2,5.6-2.1,7.3-0.2c4.2,4.9,10.5,15.4-8.7,21C449.2,569.2,462.7,549.8,471.6,542.4z"/>
			<path class="st9" d="M463.9,546.8c0,0-18.6,16.4-7.1,18.6c11.5,2.1,20.1,3.4,27.2-10.9C491.2,540.2,478.2,529.7,463.9,546.8z"/>
			<path class="st9" d="M460.9,543.3c-0.3,0.3-0.5,0.6-0.8,0.8c-2.9,2.4-20.3,17.6-5.6,22.1c16,4.9,28,8.1,34.8-8.8     C496.2,540.6,476.9,524.9,460.9,543.3z"/>
			<path class="st10" d="M462.5,557.9c3.2-4,9.1-3.6,9.4,0.9c0.2,2.2-1.3,4.6-6.7,6.1C457.1,567.3,459.1,562.2,462.5,557.9z"/>
		</g>
		<g>
			<path class="st10" d="M501.6,379.4c0,0,5.4-10,9.1,8.9C514.5,407.1,502.2,384,501.6,379.4z"/>
			<path class="st10" d="M497.4,373.4c0,0,7.3-12.1,11.8,11C513.7,407.6,498,379,497.4,373.4z"/>
			<path class="st10" d="M501.4,385.6c0,0,8.7,19.7,9.4,10.6c0.7-9.1,1-16-6.3-25.5S492.5,369.4,501.4,385.6z"/>
			<path class="st10" d="M500,387.7c0,0,9.4,22.8,11.3,10.6c1.9-12.2,3.1-21.4-5.5-31.4C497.1,357,490,369.5,500,387.7z"/>
			<path class="st10" d="M504.2,383.4c0,0,3.7-6.2,6,5.6S504.6,386.3,504.2,383.4z"/>
		</g>
		<g>
			<path class="st10" d="M578.6,570.6c-0.1-0.8,0.2-1.6,0.7-2.1c1.9-1.7,6.2-4.1,6.9,11C587,597.4,579.5,577.1,578.6,570.6z"/>
			<path class="st10" d="M575.3,564c-0.1-0.8,0.2-1.6,0.8-2.1c2.3-2,8.4-5.4,9.1,13.6C586.1,597.7,576.3,571.9,575.3,564z"/>
			<path class="st10" d="M577.3,575.4c0,0,0,0.1,0,0.1c0.4,1.3,5.7,20.4,7.7,11.8c2-8.9,3.4-15.7-2.3-26.2     C576.9,550.7,571,558.1,577.3,575.4z"/>
			<path class="st10" d="M575.6,577.2c0,0.1,0,0.1,0.1,0.2c0.4,1.6,5.9,23.5,9.5,12.1c3.7-11.8,6.3-20.7-0.7-31.9     C577.5,546.5,568.6,557.8,575.6,577.2z"/>
			<path class="st10" d="M580.7,575.3c-0.2-1.2,0.3-2.4,1.5-2.7c1.4-0.4,3.2,0.4,3.5,7.7C586,590.8,581.7,580,580.7,575.3z"/>
		</g>
		<g>
			<path class="st10" d="M429.3,580.5c0,0,8.3-7.7,5.9,11.3C432.7,610.9,428.4,585.1,429.3,580.5z"/>
			<path class="st10" d="M427.2,573.5c0,0,10.8-9.2,7.7,14.2C431.8,611.1,426,579,427.2,573.5z"/>
			<path class="st10" d="M427.1,586.3c0,0,2,21.4,5.6,13s6-14.9,2.1-26.2C430.9,561.8,423.8,568.1,427.1,586.3z"/>
			<path class="st10" d="M425.1,587.9c0,0,1.7,24.6,7.3,13.7s9.7-19.3,4.7-31.5C432.2,557.9,421.4,567.4,425.1,587.9z"/>
			<path class="st10" d="M430.5,585.2C430.5,585.2,430.5,585.2,430.5,585.2c0,0,5.5-4.7,3.9,7.3C432.9,604.4,429.9,588,430.5,585.2z     "/>
		</g>
		<g>
			<path class="st10" d="M444.7,625.2c0,0-1-17.9,9.9,14.7C465.5,672.5,447.1,633.1,444.7,625.2z"/>
			<path class="st10" d="M439.2,615.1c0,0-0.8-21.8,12.6,18.3C465.2,673.4,442.2,624.8,439.2,615.1z"/>
			<path class="st10" d="M447.3,636.1c0,0,14.5,33.6,10.8,17.7c-3.7-15.9-6.6-28-15.6-44.1C433.6,593.7,434.3,608.5,447.3,636.1z"/>
			<path class="st10" d="M447.4,639.9c0,0,16.4,39.1,12.1,17.6c-4.3-21.5-7.7-37.6-17.8-54.4C431.7,586.4,432.7,608.9,447.4,639.9z"/>
			<path class="st10" d="M448.2,632C448.2,632,448.2,632,448.2,632c0,0-0.4-11.1,6.4,9.3C461.4,661.8,449.7,637,448.2,632z"/>
		</g>
		<g>
			<path class="st10" d="M565.4,629.3c0,0,13.4-11.9-5.4,16.9C541.1,674.9,560.7,636.1,565.4,629.3z"/>
			<path class="st10" d="M570,618.7c0,0,16.6-14.1-6.5,21.2C540.3,675.3,564.2,627.1,570,618.7z"/>
			<path class="st10" d="M558.5,638.1c0,0-17.4,32.2-7.2,19.5s17.9-22.6,24.9-39.5C583.3,601,572.1,610.8,558.5,638.1z"/>
			<path class="st10" d="M555.6,640.5c0,0-20.6,37.1-6.4,20.4s24.8-29.4,31.7-47.6C587.8,595,570.9,609.8,555.6,640.5z"/>
			<path class="st10" d="M562.3,636.2C562.3,636.2,562.3,636.2,562.3,636.2c0,0,8.5-7.2-3.3,10.8     C547.1,665.1,559.3,640.5,562.3,636.2z"/>
		</g>
		<path class="st16" d="M505.1,527.6c0,0,10.1,20.2,4.3,27.4c-5.8,7.2-13,7.2-13,7.2S496.4,530.4,505.1,527.6z"/>
		<path class="st16" d="M417.1,557.8c0-7.2,0-15.9,4.3-44.7c1.9-12.4,4.5-24.5,6.9-34.2c-11,14.2-19.9,41.7-19.9,67.4    c0,5.3-0.1,10.6-0.2,15.9l9.2,0.5C417.3,560.9,417.1,559.2,417.1,557.8z"/>
		<path class="st16" d="M554.1,497.3c0,0,1.4,41.8,7.2,41.8s5.8,0,5.8,0s-7.2,10.1,0,10.1s18,2.2,18,2.2l-30.2,9.8    c2.2,5.6,6.4-7.6-3.7-32.1C546.2,517,554.1,497.3,554.1,497.3z"/>
		<g class="st11">
			<path class="st12" d="M545.4,763.9c-1.4-11.5-7.2-4.3-14.4-18.7c-7.2-14.4-30.3-30.3-30.3-30.3s14.4,36,21.6,40.4     s10.1,23.1,10.1,23.1s1.4,2.9,1.4,15.9s2.9,59.1,2.9,59.1l10.1-57.7C546.9,795.6,546.9,775.5,545.4,763.9z"/>
		</g>
		
			<linearGradient id="SVGID_00000000902734034125234670000006607246215493946240_" gradientUnits="userSpaceOnUse" x1="460.6063" y1="865.2922" x2="459.6919" y2="851.5773">
			<stop offset="0" style="stop-color:#FFFFFF"/>
			<stop offset="0.5562" style="stop-color:#3D82A8"/>
		</linearGradient>
		<polygon style="fill:url(#SVGID_00000000902734034125234670000006607246215493946240_);" points="430.4,849.5 434.4,872     489.2,869.2 488.7,849.8   "/>
		
			<linearGradient id="SVGID_00000131356200550619657170000018301576802328234132_" gradientUnits="userSpaceOnUse" x1="565.8246" y1="860.1225" x2="564.9103" y2="846.4075">
			<stop offset="0" style="stop-color:#FFFFFF"/>
			<stop offset="0.5562" style="stop-color:#3D82A8"/>
		</linearGradient>
		<polygon style="fill:url(#SVGID_00000131356200550619657170000018301576802328234132_);" points="535.6,844.3 539.7,866.9     594.4,864 594,844.7   "/>
		<path class="st21" d="M460.4,407.9c1.4-4.3,1.4,2.9,1.4-7.2c0-10.1-7.2-13,8.6-11.5c15.9,1.4,18.7,0,24.5-1.4    c5.8-1.4,11.3-8.9,22.9-3.7c0.4,0.2,0.8,0.4,1.3,0.6c-4.3-11.4-14.9-27.3-37.9-23.5c-42.7,7.1-33.2,43.2-33.2,43.2l1.4,8.3    c0,0.2,0.1,0.4,0.1,0.6C460.4,413.7,458.9,412.2,460.4,407.9z"/>
		<path class="st26" d="M490.6,857.6c0,0-4.3-57.7-4.3-66.3c0-8.6,0-11.5,0-15.9s11.5-23.1,13-41.8c1.4-18.7,1.4-18.7,1.4-18.7    s14.4,36,21.6,40.4c7.2,4.3,10.1,23.1,10.1,23.1s1.4,2.9,1.4,15.9c0,9.4,1.5,36.1,2.3,50.1l-0.6,0l0.9,5.2    c0.1,2.4,0.2,3.8,0.2,3.8h0.4"/>
		<path class="st26" d="M595.9,853.3c0,0-3.4-56.1-4.2-85.1c2.6-5.5,2.9-12.3,0.1-21.7c-0.1-0.3-0.2-0.5-0.3-0.8c0-5.9,0-2.3,0-10.6    c0-11.5-8.6-56.2-17.3-72.1c-8.6-15.9-8.6-15.9-8.6-15.9l-1.6,0.1c14.1-22.3,29-45.3,29-49.1c0-3.7-2.1-16.1-4.2-27.2    c-0.1-2.3-0.5-4.6-1.3-7c-1.1-5.7-2-10.2-2.3-11.9l5.3-1.9c-5.4-16.7-11.8-34.4-13.3-39.9c-2.9-10.1-8.6-28.8-15.9-33.2    s-18-12.3-23.8-12.3c-5.5,0-7-5.1-21.8-5.7c0-4.3-0.1-8.2-0.3-10.9c2.9-5,4.1-8.2,4.9-13.3c0.4-1.3,0.6-2.6,0.5-3.9    c0.2-1.6,0.3-3.5,0.5-5.6l0.9,0c0,0,7.4-11.8,4.5-19c-1.4-3.5-3.2-3.9-4.6-3.4c0-1-0.1-1.8-0.2-2.5c0-0.2,0-0.4-0.1-0.6    c0-0.3-0.1-0.5-0.1-0.7c0-0.3-0.1-0.5-0.1-0.6c0-0.1,0-0.3,0-0.5c0-0.2,0-0.4,0-0.6c0-0.3,0-0.7,0-1.1c0-1,0-2,0-2.2    c0-0.2,0-0.4-0.1-0.6c0-0.1,0-0.1,0-0.2c0-0.2,0-0.3-0.1-0.5c0-0.1,0-0.2,0-0.3c0-0.2-0.1-0.4-0.1-0.6c0-0.1,0-0.2,0-0.3    c-0.1-0.3-0.1-0.6-0.2-0.9c0-0.1-0.1-0.2-0.1-0.3c0-0.2-0.1-0.4-0.2-0.7c0-0.2-0.1-0.3-0.1-0.5c-0.1-0.2-0.1-0.4-0.2-0.6    c0-0.2-0.1-0.3-0.1-0.5c-0.1-0.2-0.1-0.5-0.2-0.7c-0.1-0.3-0.2-0.6-0.3-0.9c-0.1-0.2-0.1-0.5-0.2-0.7c-0.1-0.2-0.2-0.5-0.2-0.7    c-0.1-0.2-0.1-0.4-0.2-0.6c0-0.1,0-0.1-0.1-0.2h0c0,0,0,0,0,0c-0.1-0.2-0.1-0.4-0.2-0.6c0-0.1-0.1-0.2-0.1-0.4    c-0.1-0.1-0.1-0.3-0.2-0.4c-0.1-0.2-0.2-0.5-0.3-0.7c-0.1-0.2-0.2-0.5-0.3-0.7c-0.2-0.3-0.3-0.7-0.5-1c-0.1-0.2-0.2-0.3-0.2-0.5    c0,0,0,0,0-0.1c0-0.1-0.1-0.2-0.1-0.3c-0.1-0.2-0.2-0.4-0.3-0.6c-0.1-0.3-0.3-0.5-0.4-0.8c-0.1-0.2-0.2-0.4-0.3-0.6    c-0.2-0.4-0.5-0.9-0.7-1.3c-0.1-0.2-0.2-0.3-0.3-0.5c-0.2-0.3-0.4-0.6-0.6-1c-0.1-0.2-0.2-0.4-0.4-0.5c-0.1-0.2-0.3-0.4-0.4-0.6    c0,0,0,0,0,0c-0.1-0.1-0.2-0.3-0.3-0.4c-0.1-0.1-0.2-0.2-0.3-0.4c-0.1-0.1-0.2-0.3-0.3-0.4c0,0,0,0,0,0c-0.2-0.3-0.4-0.6-0.7-0.9    c-0.1-0.1-0.2-0.3-0.3-0.4c-0.3-0.3-0.5-0.6-0.8-1c-0.1-0.1-0.2-0.3-0.4-0.4c-0.2-0.3-0.5-0.5-0.8-0.8c0,0,0,0,0,0    c-0.1-0.1-0.3-0.3-0.4-0.4c0,0-0.1-0.1-0.1-0.1c-0.4-0.4-0.8-0.7-1.2-1.1c-0.1-0.1-0.3-0.2-0.4-0.3c-0.4-0.3-0.7-0.6-1.1-0.9    c-0.1-0.1-0.2-0.2-0.3-0.3c-0.5-0.4-1-0.7-1.5-1c-0.1-0.1-0.2-0.1-0.3-0.2c-0.4-0.3-0.9-0.5-1.3-0.8c-0.2-0.1-0.3-0.2-0.5-0.3    c-0.5-0.3-1-0.5-1.6-0.8c-0.1,0-0.1-0.1-0.2-0.1c-0.6-0.3-1.2-0.5-1.8-0.7c-0.2-0.1-0.3-0.1-0.5-0.2c-0.5-0.2-1-0.3-1.5-0.5    c-0.2,0-0.3-0.1-0.5-0.1c-0.7-0.2-1.3-0.3-2-0.5c-0.1,0-0.2,0-0.3-0.1c-0.6-0.1-1.2-0.2-1.9-0.3c-0.2,0-0.4-0.1-0.6-0.1    c-0.6-0.1-1.2-0.1-1.9-0.2c-0.1,0-0.3,0-0.4,0c-0.8,0-1.5,0-2.3,0c-0.2,0-0.4,0-0.6,0c-0.6,0-1.3,0.1-1.9,0.1    c-0.2,0-0.5,0-0.7,0.1c-0.9,0.1-1.7,0.2-2.6,0.3c-42.7,7.1-33.2,43.2-33.2,43.2l1.4,8.3c0,0.2,0.1,0.4,0.1,0.6    c0,0-7.2-3.2-1.5,9.8c5.8,13,5.8,10.1,5.8,13c0,2,3,3.8,5.2,3.1c2.6,4.7,5.7,9.2,9.4,12.8c0.9,2.6,1.8,5.4,2.4,8.2    c-4.1,2.3-15,7.9-28.6,9.1c-4.7,0.4-9.5,4-14,9.7c0,0,0,0,0,0c0,0,0,0,0,0c-0.6,0.8-1.2,1.6-1.8,2.5c-0.1,0.2-0.2,0.3-0.3,0.5    c-0.3,0.4-0.5,0.8-0.8,1.2c-0.1,0.2-0.2,0.3-0.3,0.5c-0.5,0.9-1.1,1.7-1.6,2.6c-0.1,0.1-0.1,0.2-0.2,0.3c-0.3,0.4-0.5,0.9-0.8,1.4    c-0.1,0.2-0.2,0.5-0.4,0.7c-0.2,0.5-0.5,0.9-0.7,1.4c-0.1,0.1-0.1,0.2-0.2,0.3c-0.5,0.9-0.9,1.9-1.4,2.9c-0.1,0.3-0.3,0.6-0.4,0.9    c-0.2,0.5-0.4,0.9-0.6,1.4c-0.1,0.3-0.3,0.7-0.4,1c-0.3,0.7-0.6,1.5-0.9,2.2c-0.2,0.4-0.3,0.8-0.5,1.2c-0.2,0.4-0.3,0.9-0.5,1.3    c-0.2,0.4-0.3,0.9-0.5,1.3c-0.2,0.4-0.3,0.9-0.5,1.3c-0.3,0.8-0.5,1.6-0.8,2.3c-0.1,0.4-0.2,0.8-0.4,1.1c-0.2,0.5-0.3,1.1-0.5,1.6    c-0.1,0.4-0.2,0.8-0.4,1.2c-0.2,0.6-0.4,1.3-0.5,1.9c-0.1,0.4-0.2,0.7-0.3,1.1c-0.2,0.8-0.4,1.6-0.6,2.4c-0.1,0.4-0.2,0.7-0.3,1.1    c-0.2,0.7-0.3,1.3-0.5,2c-0.1,0.3-0.1,0.6-0.2,1c-0.2,0.9-0.4,1.9-0.6,2.8c-0.1,0.3-0.1,0.5-0.1,0.8c-0.1,0.7-0.3,1.5-0.4,2.2    c-0.1,0.3-0.1,0.6-0.2,1c-0.1,0.9-0.3,1.8-0.4,2.7c0,0.1,0,0.2,0,0.3c-0.1,1-0.3,2-0.4,3c0,0.3-0.1,0.6-0.1,0.9    c-0.1,0.8-0.2,1.6-0.2,2.4c0,0.2,0,0.5-0.1,0.7c-0.1,1-0.2,2-0.2,3c0,0.2,0,0.4,0,0.7c0,0.8-0.1,1.6-0.1,2.4c0,0.3,0,0.6,0,0.9    c0,1,0,2,0,3c0,5.3-0.1,10.6-0.2,15.9l12.4,0.7h-11.4c0,0,4.4,37.5,4.3,44.7c0,4.2,13.9,29.1,25.4,50.7c-1.3,3.9-3,9.2-4.9,15.3    c-0.2,0.6-0.4,1.1-0.5,1.7c-1.4,4.7-3,9.7-4.5,15.1c-0.2,0.7-0.4,1.3-0.6,2c-1,3.4-1.9,6.8-2.9,10.3c-1.9,6.9-3.7,13.9-5.2,20.6    c-0.9,4-1.7,7.9-2.4,11.6c-1.2,6.1-1.9,11.6-2.2,16.2c-1.4,28.8,10.1,24.5,10.1,41.8c0,17.3,2.9,50.4,2.9,50.4l1.7,6.3    c0,0,0,0,0,0l0,0h0"/>
	</g>
	<g>
		<g>
			<path class="st27" d="M821.1,419.4c-24.6-50.8-58-91.8-94.6-126.9C635,205,502.5,191,502.5,191c2.3-0.1,53.9-8.1,122.5,18     c40.3,15.3,81.7,39.8,114.2,68.1c40.5,35.3,74.1,80.2,100,133.7L821.1,419.4z"/>
		</g>
		<g>
			<g>
				<polygon class="st27" points="847,454 800.6,409.2 828.7,412.3 845.3,389.5     "/>
			</g>
		</g>
	</g>
	<g>
		<g>
			<path class="st27" d="M133.5,419.9l-17.8-9c25.7-50.7,58.8-94,98.3-128.7c31.6-27.8,67.4-50.1,106.4-66.3     C386.7,188.3,438.8,188,441,188c0,0-120,17-214.4,109.6C191.1,332.5,157.9,371.6,133.5,419.9z"/>
		</g>
		<g>
			<g>
				<polygon class="st27" points="107,454 109.9,389.5 126.1,412.6 154.2,410     "/>
			</g>
		</g>
	</g>
	<g>
		<g>
			<path class="st27" d="M138,460.6C213.1,305.4,331.1,256.4,394.8,241l4.7,19.4C241,279,138,460.6,138,460.6z"/>
		</g>
		<g>
			<g>
				<polygon class="st27" points="439,244 376.1,229.9 394.1,251.6 384.2,278     "/>
			</g>
		</g>
	</g>
	<g>
		<g>
			<path class="st27" d="M540.6,262.8l5.5-19.2c32.6,9.3,81.6,27.5,130,61.6c57.1,40.2,99.8,92.6,127.1,155.9     C803.2,461,712,291,540.6,262.8z"/>
		</g>
		<g>
			<g>
				<polygon class="st27" points="502,244 554.7,281.1 546.4,254.2 565.6,233.6     "/>
			</g>
		</g>
	</g>
</g>
</svg>